<svg width="163" height="145" viewBox="0 0 163 145" fill="none" xmlns="http://www.w3.org/2000/svg">
<path fill-rule="evenodd" clip-rule="evenodd" d="M154 0H0V145H99.7025C99.4911 143.684 99.381 142.311 99.381 140.881C99.4763 138.854 99.9571 136.192 100.682 133.339C99.7267 134.304 98.7969 135.198 97.8353 136.123L97.8352 136.124L97.8349 136.124C96.8955 137.028 95.9257 137.961 94.8725 139.017L94.8291 139.119C94.6742 139.482 94.1616 139.377 94.1872 138.983C94.7192 130.775 98.9008 120.962 107.777 110.008C107.887 109.873 108.047 109.847 108.178 109.896C108.695 106.805 109.005 103.474 109.149 99.842C111.816 66.4356 157.154 66.3451 158.486 99.842C158.637 103.651 159.409 107.039 160.47 110.379C161.361 111.49 162.204 112.589 163 113.676V9C163 4.02944 158.971 0 154 0ZM102.641 32.9511C102.638 32.9825 102.636 33.0138 102.636 33.0451H102.645C111.224 33.0451 118.166 39.996 118.175 48.566C118.175 57.1361 111.224 64.087 102.654 64.087C100.945 64.087 99.3084 63.8007 97.7697 63.2908C95.3275 71.8341 87.482 78.0872 78.1605 78.0872C73.616 78.0872 69.4294 76.5843 66.039 74.0705C61.6018 77.7114 55.9302 79.9032 49.7397 79.9032C39.4789 79.9032 30.6315 73.8916 26.5075 65.1963C25.7023 65.2947 24.8972 65.3484 24.0653 65.3394C13.4019 65.2052 4.85864 56.4383 5.00177 45.7749C5.13596 35.532 13.214 27.284 23.278 26.7472C24.1637 17.7209 31.7676 10.6716 41.0265 10.6716C43.8249 10.6734 46.5834 11.3354 49.0777 12.6039C52.835 7.97001 58.5692 5 65.0012 5C73.5713 5 80.8979 10.2601 83.9663 17.7209C84.9951 17.4973 86.0686 17.381 87.1689 17.381C95.7211 17.381 102.645 24.314 102.645 32.8572C102.645 32.8885 102.643 32.9198 102.641 32.9511ZM117.354 77.7963C117.354 79.4769 115.992 80.8392 114.311 80.8392C112.631 80.8392 111.269 79.4769 111.269 77.7963C111.269 76.1157 112.631 74.7533 114.311 74.7533C115.992 74.7533 117.354 76.1157 117.354 77.7963ZM106.119 76.1579C108.704 76.1579 110.8 74.0619 110.8 71.4764C110.8 68.8909 108.704 66.795 106.119 66.795C103.533 66.795 101.437 68.8909 101.437 71.4764C101.437 74.0619 103.533 76.1579 106.119 76.1579Z" fill="#F16F42"/>
</svg>
