<svg width="50" height="50" viewBox="0 0 50 50" fill="none" xmlns="http://www.w3.org/2000/svg">
<rect width="50" height="50" rx="25" fill="#007AFF"/>
<path d="M30.1216 25.0068C30.1216 25.112 30.0994 25.2116 30.0552 25.3057C30.0164 25.3942 29.9583 25.4772 29.8809 25.5547L23.3066 31.9878C23.1572 32.1372 22.9746 32.2119 22.7588 32.2119C22.6204 32.2119 22.4932 32.1787 22.377 32.1123C22.2607 32.0459 22.1694 31.9546 22.103 31.8384C22.0366 31.7277 22.0034 31.6004 22.0034 31.4565C22.0034 31.2518 22.0754 31.0719 22.2192 30.917L28.2622 25.0068L22.2192 19.0967C22.0754 18.9417 22.0034 18.7619 22.0034 18.5571C22.0034 18.4132 22.0366 18.286 22.103 18.1753C22.1694 18.0591 22.2607 17.9678 22.377 17.9014C22.4932 17.835 22.6204 17.8018 22.7588 17.8018C22.9746 17.8018 23.1572 17.8737 23.3066 18.0176L29.8809 24.459C29.9583 24.5365 30.0164 24.6222 30.0552 24.7163C30.0994 24.8049 30.1216 24.9017 30.1216 25.0068Z" fill="white"/>
</svg>
