<svg width="344" height="361" viewBox="0 0 344 361" fill="none" xmlns="http://www.w3.org/2000/svg">
<path d="M72 64.5C72 64.5 150.5 151 208 85.7479C265.5 20.4959 356.5 129 279.5 193C249.219 218.168 103.5 166.744 154.5 266.5C205.5 366.256 61.5 332 61.5 332" stroke="#ABD6A0" stroke-width="9" stroke-linecap="round" stroke-dasharray="18 18"/>
<circle cx="86.5961" cy="45.6596" r="45.6596" fill="#FFEAE2"/>
<path d="M120.843 11.4185H120.837L131.034 13.4566C131.582 13.5662 132.032 13.9677 132.19 14.5092C132.27 14.7722 132.277 15.052 132.211 15.3187C132.144 15.5855 132.007 15.8293 131.813 16.0241L123.459 24.3836C122.46 25.3812 121.105 25.9414 119.693 25.9411H112.77L95.3693 43.3476C95.7013 44.601 95.7624 45.9108 95.5484 47.1897C95.3345 48.4686 94.8505 49.6872 94.1286 50.7644C93.4068 51.8416 92.4637 52.7525 91.3622 53.4366C90.2607 54.1207 89.026 54.5623 87.7405 54.7318C86.455 54.9013 85.1481 54.7949 83.9069 54.4197C82.6657 54.0446 81.5187 53.4092 80.5423 52.556C79.5659 51.7027 78.7825 50.6512 78.2444 49.4715C77.7062 48.2918 77.4257 47.0109 77.4214 45.7143C77.4223 44.3143 77.7451 42.9332 78.3648 41.6779C78.9845 40.4225 79.8846 39.3264 80.9954 38.4744C82.1062 37.6223 83.3981 37.037 84.7712 36.7637C86.1442 36.4905 87.5617 36.5366 88.9142 36.8985L106.321 19.4859V12.5684C106.321 11.1569 106.88 9.80013 107.878 8.80235L116.238 0.442864C116.432 0.248958 116.676 0.111486 116.943 0.0450657C117.21 -0.0213548 117.49 -0.0142403 117.753 0.0656524C118.294 0.223838 118.696 0.674057 118.805 1.22162L120.843 11.4185Z" fill="#F16F42"/>
<path d="M50.043 45.7142C50.0492 50.9341 51.1749 56.0919 53.344 60.8398C55.5131 65.5876 58.6752 69.8151 62.617 73.2369C66.5588 76.6588 71.1887 79.1955 76.1942 80.6759C81.1998 82.1563 86.4646 82.546 91.6336 81.8187C96.8026 81.0914 101.755 79.264 106.158 76.4597C110.561 73.6555 114.311 69.9397 117.155 65.5629C120 61.1862 121.873 56.2503 122.647 51.0882C123.422 45.9261 123.081 40.6579 121.646 35.639C121.445 35.0527 121.365 34.4314 121.411 33.8132C121.457 33.1949 121.629 32.5926 121.916 32.0428C122.202 31.493 122.598 31.0073 123.078 30.6153C123.558 30.2232 124.113 29.933 124.709 29.7623C125.305 29.5916 125.93 29.544 126.545 29.6223C127.16 29.7007 127.753 29.9034 128.287 30.2181C128.821 30.5328 129.286 30.9529 129.652 31.4529C130.019 31.9529 130.28 32.5222 130.419 33.1263C133.197 42.8457 132.669 53.2122 128.919 62.5995C125.169 71.9867 118.409 79.8635 109.7 84.9941C100.99 90.1247 90.8234 92.2188 80.7951 90.9479C70.7668 89.677 61.4441 85.1129 54.2896 77.9718C47.1429 70.8191 42.574 61.4956 41.3002 51.4649C40.0264 41.4343 42.1198 31.2647 47.2517 22.5527C52.3837 13.8407 60.2636 7.07965 69.6543 3.33113C79.0449 -0.417386 89.4146 -0.941134 99.1352 1.84212C100.293 2.18046 101.269 2.96321 101.851 4.01931C102.433 5.0754 102.574 6.31897 102.242 7.47824C101.91 8.63751 101.132 9.61821 100.079 10.206C99.0263 10.7939 97.7835 10.941 96.6224 10.6153C91.1868 9.05576 85.4633 8.78015 79.903 9.81019C74.3427 10.8402 69.0976 13.1478 64.5813 16.5509C60.0651 19.954 56.401 24.3597 53.8781 29.4206C51.3551 34.4815 50.0423 40.0593 50.043 45.7142Z" fill="#F16F42"/>
<path d="M68.2955 45.7143C68.2958 49.0398 69.2041 52.3021 70.9224 55.1492C72.6406 57.9964 75.1036 60.3205 78.0456 61.8707C80.9877 63.4209 84.2971 64.1385 87.617 63.946C90.9369 63.7535 94.1413 62.6583 96.8844 60.7784C99.6271 58.8938 101.802 56.2953 103.175 53.2638C104.548 50.2323 105.065 46.8832 104.672 43.5788C104.566 42.7769 104.675 41.9612 104.989 41.2156C105.302 40.47 105.809 39.8215 106.457 39.3369C107.104 38.8523 107.87 38.549 108.673 38.4583C109.477 38.3677 110.291 38.4929 111.03 38.8211C111.769 39.145 112.409 39.6592 112.885 40.3111C113.36 40.9631 113.654 41.7296 113.737 42.5323C114.398 48.1789 113.285 53.8913 110.552 58.8766C107.819 63.8618 103.602 67.8727 98.4866 70.3524C93.3708 72.8322 87.6098 73.6579 82.0034 72.7149C76.397 71.7718 71.2232 69.1069 67.2001 65.0899C63.1771 61.073 60.5043 55.9032 59.5527 50.2982C58.6012 44.6932 59.4181 38.9311 61.8901 33.8115C64.3621 28.6918 68.3666 24.4687 73.3476 21.7283C78.3287 18.9879 84.0394 17.8661 89.687 18.5186C90.2917 18.5747 90.8792 18.751 91.4149 19.037C91.9506 19.3231 92.4238 19.7133 92.8068 20.1846C93.1898 20.656 93.4748 21.199 93.6452 21.782C93.8156 22.3649 93.8679 22.976 93.7991 23.5794C93.7302 24.1828 93.5416 24.7664 93.2443 25.2959C92.947 25.8255 92.5469 26.2904 92.0676 26.6634C91.5883 27.0363 91.0394 27.3099 90.453 27.4679C89.8666 27.626 89.2545 27.6654 88.6527 27.5838C86.0953 27.2869 83.5041 27.5344 81.0491 28.31C78.5941 29.0856 76.331 30.3717 74.4084 32.084C72.4858 33.7963 70.9472 35.896 69.8937 38.2452C68.8401 40.5943 68.2955 43.1397 68.2955 45.7143Z" fill="#F16F42"/>
<path d="M66.8941 58.2709C70.2663 58.8499 73.0256 62.774 77.3014 72.1639C77.3512 72.2734 77.2129 72.3739 77.1267 72.29C73.7443 68.9932 71.4235 67.2228 67.8554 63.0723C67.8439 63.0589 67.8356 63.0426 67.8317 63.0255L66.7734 58.4002C66.7565 58.3261 66.8191 58.258 66.8941 58.2709Z" fill="#344E91"/>
<path d="M77.3606 72.3116C76.8958 65.3334 73.1995 56.9919 65.33 47.7271C65.187 47.5587 64.9138 47.686 64.9531 47.9034L66.8139 58.1947C66.8303 58.285 66.9019 58.3548 66.9919 58.3726C70.5709 59.0784 72.9882 63.5232 76.9688 72.4012C77.0657 72.6173 77.3763 72.5478 77.3606 72.3116Z" fill="#4A64AA"/>
<path d="M53.0593 95.8826L50.2535 96.7031C50.0388 96.7658 49.8446 96.5766 49.9186 96.3656C50.4149 94.9514 52.2376 90.8908 56.8243 90.824C62.0447 90.748 63.6368 95.422 64.0221 96.9797C64.0762 97.1981 63.8624 97.3684 63.6542 97.283L60.2108 95.8694C59.8602 95.7255 59.4601 95.7748 59.1549 95.9994L57.5089 97.2111C57.1717 97.4593 56.7218 97.4915 56.3527 97.2938L53.8766 95.9676C53.6258 95.8333 53.3324 95.8028 53.0593 95.8826Z" fill="#F16F42"/>
<path d="M63.9596 39.5166C62.3038 11.6171 24.5145 12.4307 22.8354 40.3198C22.6906 47.4791 21.7481 53.25 19.5725 58.3255C17.3968 63.401 15.4735 70.605 15.3613 74.6869C15.9461 104.633 73.9418 103.741 72.77 73.5656C72.637 70.143 71.3084 62.7027 69.2857 57.3546C66.9169 51.0913 64.3487 46.0739 63.9596 39.5166Z" fill="#4A64AA"/>
<path d="M41.7349 35.5296C41.6439 30.8672 43.0536 27.2019 46.0137 27.1441C47.5655 27.1138 51.6668 28.4682 53.7303 33.9369C53.8524 34.2605 54.3534 34.226 54.4059 33.8842C55.2443 28.4197 54.5685 27.1697 56.221 26.9447C59.1812 26.8869 60.8655 30.4918 60.9565 35.1542C61.0068 37.7275 60.814 42.1808 60.4249 47.4559C60.3558 48.3937 60.5324 49.3387 60.9165 50.1971C70.3277 71.2282 66.9615 88.4131 52.3879 88.6977C37.8536 88.9816 33.323 70.8768 42.2947 50.6522C42.7091 49.7182 42.8823 48.6879 42.7656 47.6728C42.1567 42.3808 41.7824 37.9603 41.7349 35.5296Z" fill="#D4E4FE"/>
<path fill-rule="evenodd" clip-rule="evenodd" d="M58.193 41.2564C59.2706 41.2353 60.1019 39.0554 60.0498 36.3873C59.9977 33.7192 59.0819 31.5734 58.0043 31.5945C57.5435 31.6035 57.1278 32.0072 56.8069 32.6752C56.8115 32.6749 56.8161 32.6748 56.8207 32.6747C57.3302 32.6648 57.7572 33.3664 57.7743 34.2418C57.7914 35.1173 57.3921 35.8351 56.8826 35.845C56.607 35.8504 56.3555 35.6476 56.18 35.3217C56.1514 35.6882 56.1399 36.0705 56.1476 36.4635C56.1997 39.1316 57.1155 41.2774 58.193 41.2564Z" fill="black"/>
<path fill-rule="evenodd" clip-rule="evenodd" d="M56.1804 35.3222C56.2629 34.2643 56.4882 33.3391 56.8072 32.675C56.8117 32.6748 56.8162 32.6747 56.8207 32.6746C57.3303 32.6646 57.7572 33.3663 57.7743 34.2417C57.7914 35.1172 57.3922 35.835 56.8826 35.8449C56.6072 35.8503 56.3558 35.6477 56.1804 35.3222Z" fill="white"/>
<path d="M59.7555 42.5765C59.7555 42.5765 58.1988 37.6027 56.0559 37.4916C53.913 37.3806 51.1865 42.2573 51.1865 42.2573C51.1865 42.2573 52.232 51.3414 55.8317 50.924C59.2613 50.5263 59.7555 42.5765 59.7555 42.5765Z" fill="#FD916D"/>
<path d="M61.1373 42.0742L61.7836 45.1836C57.8623 44.2842 54.3162 42.8164 51.1883 42.2541C51.2671 42.1139 53.9448 37.3822 56.0559 37.4916C58.1659 37.601 60.5272 39.4663 61.1373 42.0742Z" fill="#F16F42"/>
<path d="M51.1867 42.2569L51.1865 42.2573C51.1865 42.2573 51.1869 42.2611 51.1878 42.2685C51.1873 42.2632 51.1869 42.2593 51.1867 42.2569Z" fill="#F16F42"/>
<path d="M55.9592 50.9055C55.9172 50.9116 55.8747 50.9165 55.8317 50.9204C55.4772 50.9523 55.1486 50.9039 54.844 50.7898C55.1496 50.9143 55.4783 50.9649 55.8317 50.924C55.8747 50.919 55.9172 50.9128 55.9592 50.9055Z" fill="#F16F42"/>
<path d="M37.6179 97.4848L34.8121 98.3052C34.5974 98.368 34.4032 98.1788 34.4772 97.9678C34.9735 96.5535 36.7962 92.493 41.3829 92.4262C46.6033 92.3502 48.1954 97.0241 48.5807 98.5818C48.6348 98.8003 48.421 98.9706 48.2128 98.8851L44.7694 97.4716C44.4188 97.3277 44.0186 97.377 43.7135 97.6016L42.0675 98.8133C41.7303 99.0615 41.2804 99.0937 40.9113 98.896L38.4352 97.5698C38.1844 97.4355 37.891 97.4049 37.6179 97.4848Z" fill="#F16F42"/>
<path fill-rule="evenodd" clip-rule="evenodd" d="M47.4973 41.4652C49.3487 41.429 50.8072 39.2368 50.7551 36.5688C50.703 33.9007 49.1599 31.7671 47.3086 31.8033C46.5169 31.8188 45.797 32.2285 45.2364 32.9012C45.2446 32.9009 45.2529 32.9007 45.2611 32.9005C46.1366 32.8834 46.8601 33.5793 46.8772 34.4547C46.8943 35.3302 46.1985 36.0537 45.323 36.0708C44.8491 36.0801 44.4196 35.8804 44.1227 35.5564C44.0684 35.9236 44.0432 36.3065 44.0509 36.6997C44.103 39.3678 45.646 41.5014 47.4973 41.4652Z" fill="black"/>
<path fill-rule="evenodd" clip-rule="evenodd" d="M44.1227 35.5567C44.2795 34.4979 44.6794 33.5697 45.2365 32.9013C45.2446 32.901 45.2527 32.9008 45.2608 32.9006C46.1363 32.8835 46.8598 33.5793 46.8769 34.4548C46.894 35.3302 46.1982 36.0538 45.3227 36.0709C44.8489 36.0802 44.4196 35.8806 44.1227 35.5567Z" fill="white"/>
<path d="M22.4741 58.4902C19.0668 58.1784 15.3874 61.2566 8.83117 69.2233C8.75472 69.3162 8.86243 69.4491 8.96735 69.3902C13.0866 67.079 15.786 65.9683 20.3051 62.8803C20.3196 62.8704 20.3319 62.8568 20.3401 62.8412L22.5572 58.6463C22.5927 58.5791 22.5498 58.4971 22.4741 58.4902Z" fill="#344E91"/>
<path d="M8.73635 69.3506C10.988 62.7293 16.7135 55.6258 26.7093 48.7083C26.8909 48.5826 27.1219 48.7761 27.0278 48.976L22.5717 58.4373C22.5326 58.5203 22.4453 58.5692 22.3538 58.5631C18.714 58.3205 15.2305 61.99 9.0917 69.5384C8.94231 69.7221 8.66012 69.5748 8.73635 69.3506Z" fill="#5B74B7"/>
<rect x="5.54346" y="63.8484" width="31.2235" height="25.7594" transform="rotate(-1.11895 5.54346 63.8484)" fill="#AA6D4A"/>
<rect x="0.861816" y="63.9399" width="31.2235" height="25.7594" transform="rotate(-1.11895 0.861816 63.9399)" fill="#C19278"/>
<path fill-rule="evenodd" clip-rule="evenodd" d="M32.2117 70.1393C26.8985 71.8361 22.2411 72.8027 17.3808 72.9194C12.4515 73.0377 7.28555 72.2824 0.989258 70.4965L1.01216 71.669C7.23846 73.4107 12.4249 74.1611 17.4077 74.0415C22.3085 73.9239 26.9861 72.9652 32.2345 71.3097L32.2117 70.1393Z" fill="#B47755"/>
<path d="M12.3755 73.8646L20.5739 73.8997L20.6125 75.875C20.6185 76.1849 20.3722 76.441 20.0623 76.4471L12.99 76.5852C12.6801 76.5913 12.4239 76.3449 12.4179 76.035L12.3755 73.8646Z" fill="#B47755"/>
<path fill-rule="evenodd" clip-rule="evenodd" d="M13.9649 55.3152L13.4038 55.3262L13.4148 55.8873L13.5107 60.7981C13.8347 60.4312 14.2272 59.9323 14.6064 59.4185L14.548 56.4265L22.9861 56.2617L23.1314 63.7L24.2536 63.6781L24.0974 55.6786L24.0864 55.1175L23.5253 55.1285L13.9649 55.3152Z" fill="#B47755"/>
<circle cx="277.199" cy="169.801" r="39.1993" fill="#4A64AA"/>
<path d="M243.991 160.858C245.463 152.385 251.243 144.507 260.378 144.507C264.861 144.507 269.581 146.983 274.229 156.197C275.005 157.734 277.416 157.638 278.104 156.06C282.035 147.051 287.11 144.862 291.879 144.507C301.015 144.507 309.661 149.052 310.615 160.858C312.374 182.619 307.485 204.193 276.333 204.193C243.991 204.193 241.757 173.721 243.991 160.858Z" fill="#D4E4FE"/>
<path d="M243.991 160.858C245.463 152.385 251.243 144.507 260.378 144.507C264.861 144.507 269.581 146.983 274.229 156.197C275.005 157.734 277.416 157.638 278.104 156.06C282.035 147.051 287.11 144.862 291.879 144.507C301.015 144.507 309.661 149.052 310.615 160.858C312.374 182.619 307.485 204.193 276.333 204.193C243.991 204.193 241.757 173.721 243.991 160.858Z" fill="#D4E4FE"/>
<path fill-rule="evenodd" clip-rule="evenodd" d="M293.208 177.104C296.864 177.104 299.827 172.833 299.827 167.565C299.827 162.297 296.864 158.026 293.208 158.026C291.645 158.026 290.208 158.807 289.076 160.113C289.092 160.113 289.107 160.113 289.123 160.113C290.852 160.113 292.253 161.514 292.253 163.243C292.253 164.971 290.852 166.373 289.123 166.373C288.188 166.373 287.349 165.962 286.775 165.312C286.654 166.034 286.589 166.789 286.589 167.565C286.589 172.833 289.553 177.104 293.208 177.104Z" fill="black"/>
<path fill-rule="evenodd" clip-rule="evenodd" d="M286.775 165.312C287.125 163.228 287.95 161.411 289.076 160.113C289.092 160.113 289.107 160.113 289.123 160.113C290.852 160.113 292.253 161.514 292.253 163.243C292.253 164.971 290.852 166.373 289.123 166.373C288.188 166.373 287.348 165.963 286.775 165.312Z" fill="white"/>
<path d="M285.367 182.537C285.367 182.537 282.522 172.784 278.35 172.486C274.178 172.188 268.678 181.589 268.678 181.589C268.678 181.589 270.37 199.334 277.402 198.658C284.101 198.013 285.367 182.537 285.367 182.537Z" fill="#F16F42"/>
<path d="M277.402 198.651C284.406 198.157 285.367 182.53 285.367 182.53L281.935 182.805C281.111 182.871 280.366 183.321 279.925 184.02C279.086 185.347 277.277 185.647 276.056 184.66L274.737 183.595C273.871 182.896 272.849 182.416 271.758 182.198L268.678 181.582C268.678 181.582 269.934 199.177 277.402 198.651Z" fill="#FD916D"/>
<path d="M276.286 184.574C275.965 184.357 275.658 184.148 275.36 183.948C273.534 182.72 271.486 184.165 271.846 186.336C272.549 190.566 274.165 196.163 277.781 195.813C281.089 195.493 282.341 190.364 282.811 186.274C283.046 184.236 280.755 183.129 279.17 184.431C278.343 185.11 277.171 185.175 276.286 184.574Z" fill="#8A2B0A"/>
<path d="M279.678 192.02C279.678 194.115 279.298 195.813 277.402 195.813C275.505 195.813 275.126 194.115 275.126 192.02C275.126 189.925 276.145 188.227 277.402 188.227C278.659 188.227 279.678 189.925 279.678 192.02Z" fill="#FF8181"/>
<path fill-rule="evenodd" clip-rule="evenodd" d="M261.014 177.104C264.67 177.104 267.633 172.833 267.633 167.565C267.633 162.297 264.67 158.026 261.014 158.026C259.451 158.026 258.015 158.807 256.882 160.113C256.898 160.113 256.913 160.113 256.929 160.113C258.658 160.113 260.059 161.514 260.059 163.243C260.059 164.971 258.658 166.373 256.929 166.373C255.994 166.373 255.155 165.963 254.581 165.312C254.46 166.035 254.396 166.789 254.396 167.565C254.396 172.833 257.359 177.104 261.014 177.104Z" fill="black"/>
<path fill-rule="evenodd" clip-rule="evenodd" d="M254.581 165.312C254.931 163.228 255.756 161.411 256.881 160.113C256.897 160.113 256.913 160.113 256.929 160.113C258.658 160.113 260.059 161.514 260.059 163.243C260.059 164.971 258.658 166.373 256.929 166.373C255.994 166.373 255.154 165.962 254.581 165.312Z" fill="white"/>
<path fill-rule="evenodd" clip-rule="evenodd" d="M301.5 105C299.246 105 297.084 105.896 295.49 107.49C293.896 109.084 293 111.246 293 113.5V147.5C293 149.754 293.896 151.916 295.49 153.51C297.084 155.104 299.246 156 301.5 156H335.5C337.754 156 339.916 155.104 341.51 153.51C343.104 151.916 344 149.754 344 147.5V113.5C344 111.246 343.104 109.084 341.51 107.49C339.916 105.896 337.754 105 335.5 105H301.5ZM312.833 119.167C312.833 118.415 313.132 117.695 313.663 117.163C314.195 116.632 314.915 116.333 315.667 116.333H332.667C333.418 116.333 334.139 116.632 334.67 117.163C335.201 117.695 335.5 118.415 335.5 119.167C335.5 119.918 335.201 120.639 334.67 121.17C334.139 121.701 333.418 122 332.667 122H315.667C314.915 122 314.195 121.701 313.663 121.17C313.132 120.639 312.833 119.918 312.833 119.167ZM312.833 130.5C312.833 129.749 313.132 129.028 313.663 128.497C314.195 127.965 314.915 127.667 315.667 127.667H332.667C333.418 127.667 334.139 127.965 334.67 128.497C335.201 129.028 335.5 129.749 335.5 130.5C335.5 131.251 335.201 131.972 334.67 132.503C334.139 133.035 333.418 133.333 332.667 133.333H315.667C314.915 133.333 314.195 133.035 313.663 132.503C313.132 131.972 312.833 131.251 312.833 130.5ZM312.833 141.833C312.833 141.082 313.132 140.361 313.663 139.83C314.195 139.299 314.915 139 315.667 139H332.667C333.418 139 334.139 139.299 334.67 139.83C335.201 140.361 335.5 141.082 335.5 141.833C335.5 142.585 335.201 143.305 334.67 143.837C334.139 144.368 333.418 144.667 332.667 144.667H315.667C314.915 144.667 314.195 144.368 313.663 143.837C313.132 143.305 312.833 142.585 312.833 141.833ZM304.333 116.333C303.582 116.333 302.861 116.632 302.33 117.163C301.799 117.695 301.5 118.415 301.5 119.167C301.5 119.918 301.799 120.639 302.33 121.17C302.861 121.701 303.582 122 304.333 122C305.085 122 305.808 121.701 306.34 121.17C306.871 120.639 307.17 119.918 307.17 119.167C307.17 118.415 306.871 117.695 306.34 117.163C305.808 116.632 305.085 116.333 304.333 116.333ZM301.5 130.5C301.5 129.749 301.799 129.028 302.33 128.497C302.861 127.965 303.582 127.667 304.333 127.667C305.085 127.667 305.808 127.965 306.34 128.497C306.871 129.028 307.17 129.749 307.17 130.5C307.17 131.251 306.871 131.972 306.34 132.503C305.808 133.035 305.088 133.333 304.336 133.333C303.585 133.333 302.861 133.035 302.33 132.503C301.799 131.972 301.5 131.251 301.5 130.5ZM304.333 139C303.582 139 302.861 139.299 302.33 139.83C301.799 140.361 301.5 141.082 301.5 141.833C301.5 142.585 301.799 143.305 302.33 143.837C302.861 144.368 303.582 144.667 304.333 144.667C305.085 144.667 305.808 144.368 306.34 143.837C306.871 143.305 307.17 142.585 307.17 141.833C307.17 141.082 306.871 140.361 306.34 139.83C305.808 139.299 305.085 139 304.333 139Z" fill="#F16F42"/>
<path d="M95.7308 305.067C100.173 306.138 103.82 311.483 109.17 323.692C109.342 324.085 108.839 324.43 108.535 324.127C104.339 319.95 101.231 317.356 96.6579 311.828C96.6178 311.78 96.5894 311.721 96.5766 311.66L95.2947 305.507C95.2395 305.241 95.4672 305.004 95.7308 305.067Z" fill="#344E91"/>
<path d="M109.564 322.751C108.528 313.727 103.84 303.15 94.5576 291.437C94.0687 290.82 93.097 291.253 93.2219 292.031L95.2357 304.561C95.2876 304.883 95.5378 305.135 95.8536 305.219C100.409 306.431 103.56 312.1 108.287 323.045C108.621 323.82 109.66 323.589 109.564 322.751Z" fill="#4A64AA"/>
<path d="M30.2688 305.067C25.8269 306.138 22.1799 311.483 16.8293 323.692C16.6572 324.085 17.1604 324.43 17.4642 324.127C21.6604 319.95 24.7687 317.356 29.3416 311.828C29.3817 311.78 29.4101 311.721 29.4229 311.66L30.7048 305.507C30.7601 305.241 30.5323 305.004 30.2688 305.067Z" fill="#344E91"/>
<path d="M16.4355 322.751C17.4712 313.727 22.1593 303.15 31.4419 291.437C31.9309 290.82 32.9025 291.253 32.7776 292.031L30.7638 304.561C30.7119 304.883 30.4617 305.135 30.146 305.219C25.5902 306.431 22.4393 312.1 17.7126 323.045C17.3781 323.82 16.3393 323.589 16.4355 322.751Z" fill="#4A64AA"/>
<path d="M91.7822 278.505C90.218 239.172 36.9815 239.279 33.85 278.505C33.4492 288.583 31.9633 296.683 28.76 303.771C25.5566 310.858 22.6501 320.95 22.3799 326.695C22.3798 368.881 104.073 369.22 103.252 326.695C103.159 321.871 101.493 311.358 98.7917 303.771C95.6283 294.886 92.1499 287.75 91.7822 278.505Z" fill="#4A64AA"/>
<path d="M41.5204 272.195C41.5204 265.641 44.7806 260.53 51.298 260.53C54.5555 260.53 57.9889 262.362 61.3648 269.241C61.8442 270.218 63.36 270.159 63.7803 269.155C66.6065 262.406 70.3025 260.787 73.7721 260.53C80.2896 260.53 83.8416 265.641 83.8416 272.195C83.8416 274.844 83.5112 278.908 82.9087 283.801C82.3012 288.735 83.5268 293.706 86.0161 298.009C101.987 325.616 93.0713 347.192 62.681 347.192C32.5433 347.192 22.6349 324.52 38.8032 298.348C41.6111 293.803 43.0876 288.483 42.4273 283.182C41.8413 278.477 41.5204 274.626 41.5204 272.195Z" fill="#D4E4FE"/>
<path fill-rule="evenodd" clip-rule="evenodd" d="M74.3149 280.733C76.9229 280.733 79.037 277.686 79.037 273.928C79.037 270.169 76.9229 267.122 74.3149 267.122C73.1997 267.122 72.1747 267.679 71.3668 268.611C71.3781 268.611 71.3895 268.611 71.4009 268.611C72.6342 268.611 73.6339 269.611 73.6339 270.844C73.6339 272.077 72.6342 273.077 71.4009 273.077C70.7335 273.077 70.1345 272.784 69.7253 272.32C69.6387 272.836 69.5928 273.374 69.5928 273.928C69.5928 277.686 71.7069 280.733 74.3149 280.733Z" fill="black"/>
<path fill-rule="evenodd" clip-rule="evenodd" d="M69.7251 272.32C69.975 270.833 70.5636 269.537 71.3666 268.611C71.378 268.611 71.3893 268.611 71.4007 268.611C72.6339 268.611 73.6337 269.611 73.6337 270.844C73.6337 272.077 72.6339 273.077 71.4007 273.077C70.7333 273.077 70.1343 272.784 69.7251 272.32Z" fill="white"/>
<path d="M68.4651 286.299C68.4651 286.299 66.4098 279.252 63.3953 279.037C60.3808 278.821 56.4072 285.614 56.4072 285.614C56.4072 285.614 57.6297 298.434 62.7102 297.946C67.5505 297.48 68.4651 286.299 68.4651 286.299Z" fill="#F16F42"/>
<path d="M62.7102 297.941C67.771 297.584 68.4651 286.294 68.4651 286.294L65.9852 286.492C65.39 286.54 64.8519 286.865 64.533 287.37C63.9272 288.329 62.6204 288.546 61.7379 287.833L60.7847 287.063C60.1594 286.558 59.4211 286.212 58.6328 286.054L56.4072 285.609C56.4072 285.609 57.3151 298.321 62.7102 297.941Z" fill="#FD916D"/>
<path d="M62.0404 287.863C61.4284 287.449 60.8908 287.077 60.3675 286.753C59.4387 286.176 58.4009 286.932 58.5441 288.016C58.9503 291.09 60.0654 296.173 62.9849 295.89C65.5013 295.647 66.3703 291.552 66.6685 288.537C66.7959 287.249 65.3468 286.551 64.3463 287.373L63.8613 287.771C63.3396 288.2 62.5996 288.241 62.0404 287.863Z" fill="#8A2B0A"/>
<path d="M64.3544 293.15C64.3544 294.663 64.0804 295.89 62.7102 295.89C61.34 295.89 61.0659 294.663 61.0659 293.15C61.0659 291.636 61.8021 290.41 62.7102 290.41C63.6183 290.41 64.3544 291.636 64.3544 293.15Z" fill="#FF8181"/>
<path d="M37.3892 357.121L35.3904 357.664C34.6212 357.872 33.9626 357.181 34.2983 356.458C35.4266 354.029 38.1854 349.823 43.7532 349.851C50.1446 349.883 52.5774 354.892 53.4327 357.65C53.6702 358.416 52.9167 359.014 52.181 358.695L49.5898 357.572C48.3509 357.035 46.9216 357.183 45.8187 357.962L45.7481 358.012C44.5294 358.873 42.9243 358.956 41.623 358.226L40.2951 357.481C39.411 356.985 38.3676 356.856 37.3892 357.121Z" fill="#F16F42"/>
<path d="M75.6699 357.829L73.6711 358.372C72.902 358.58 72.2433 357.889 72.5791 357.166C73.7074 354.737 76.4661 350.531 82.0339 350.559C88.4254 350.591 90.8582 355.6 91.7134 358.358C91.951 359.124 91.1975 359.722 90.4617 359.403L87.8705 358.28C86.6316 357.743 85.2023 357.891 84.0995 358.67L84.0289 358.72C82.8102 359.581 81.205 359.664 79.9037 358.934L78.5759 358.189C77.6918 357.693 76.6483 357.564 75.6699 357.829Z" fill="#F16F42"/>
<path fill-rule="evenodd" clip-rule="evenodd" d="M51.3466 280.733C53.9546 280.733 56.0688 277.686 56.0688 273.928C56.0688 270.169 53.9546 267.122 51.3466 267.122C50.2314 267.122 49.2065 267.679 48.3986 268.611C48.4097 268.611 48.4208 268.611 48.4319 268.611C49.6652 268.611 50.665 269.611 50.665 270.844C50.665 272.077 49.6652 273.077 48.4319 273.077C47.7649 273.077 47.1661 272.785 46.7569 272.321C46.6704 272.836 46.6245 273.374 46.6245 273.928C46.6245 277.686 48.7387 280.733 51.3466 280.733Z" fill="black"/>
<path fill-rule="evenodd" clip-rule="evenodd" d="M46.7568 272.321C47.0066 270.834 47.5953 269.537 48.3985 268.611C48.4096 268.611 48.4207 268.611 48.4319 268.611C49.6652 268.611 50.6649 269.611 50.6649 270.844C50.6649 272.077 49.6652 273.077 48.4319 273.077C47.7648 273.077 47.166 272.784 46.7568 272.321Z" fill="white"/>
<path d="M84.3253 201.525C84.3253 189.357 73.8953 179.717 61.4109 181.14C51.9291 182.246 44.3437 189.831 43.3955 199.313C42.6054 206.582 45.6079 213.062 50.6649 217.17C52.8773 219.067 54.2996 221.753 54.2996 224.756V225.23H73.2632V225.072C73.2632 222.227 74.5274 219.383 76.7398 217.486C81.3227 213.694 84.3253 208.005 84.3253 201.525Z" fill="#FBC02D"/>
<path d="M74.2115 198.681L69.4706 195.52C68.9965 195.204 68.2063 195.204 67.7323 195.52L63.7815 198.049L59.9888 195.52C59.5147 195.204 58.7245 195.204 58.2505 195.52L53.5096 198.681C53.1935 198.997 52.8774 199.313 52.8774 199.787C52.8774 200.261 52.8774 200.735 53.1935 201.051L59.1986 208.479V225.23H62.3592V207.847C62.3592 207.531 62.2012 207.214 62.0432 206.898L56.8282 200.419L59.1986 198.839L62.9914 201.367C63.4654 201.683 64.2556 201.683 64.7297 201.367L68.5224 198.839L70.8929 200.419L65.6779 206.898C65.5198 207.214 65.3618 207.531 65.3618 207.847V225.23H68.5224V208.479L74.5275 201.051C74.8436 200.735 75.0016 200.261 74.8436 199.787C74.6856 199.313 74.5275 198.839 74.2115 198.681Z" fill="#FFF59D"/>
<path d="M63.7819 241.033C66.4002 241.033 68.5228 238.91 68.5228 236.292C68.5228 233.674 66.4002 231.551 63.7819 231.551C61.1636 231.551 59.041 233.674 59.041 236.292C59.041 238.91 61.1636 241.033 63.7819 241.033Z" fill="#5C6BC0"/>
<path d="M66.9422 237.872H60.621C57.1443 237.872 54.2998 235.028 54.2998 231.551V223.65H73.2634V231.551C73.2634 235.028 70.4189 237.872 66.9422 237.872Z" fill="#9FA8DA"/>
<path d="M73.2634 231.551L54.9319 234.08C55.406 235.186 56.3542 236.292 57.4604 236.924L72.3152 234.87C72.9473 233.922 73.2634 232.815 73.2634 231.551ZM54.2998 227.916V231.077L73.2634 228.39V225.23L54.2998 227.916Z" fill="#344E91"/>
</svg>
