<svg width="390" height="335" viewBox="0 0 390 335" fill="none" xmlns="http://www.w3.org/2000/svg">
<path d="M244.673 100.718H244.641C244.641 100.493 244.673 100.269 244.673 100.044C244.673 69.3624 219.807 44.4639 189.094 44.4639C185.142 44.4639 181.287 44.8815 177.592 45.6847C166.572 18.8907 140.26 0 109.483 0C86.3833 0 65.7898 10.6662 52.2964 27.308C43.3384 22.7524 33.4319 20.3749 23.3821 20.3686C-9.86944 20.3686 -37.1774 45.6847 -40.358 78.1009C-76.501 80.0285 -105.512 109.65 -105.994 146.435C-106.508 184.731 -75.8263 216.215 -37.5308 216.697C-34.543 216.729 -31.6516 216.536 -28.7601 216.183C-13.9496 247.411 17.8241 269 54.6738 269C76.9058 269 97.2744 261.129 113.209 248.053C125.386 257.081 140.421 262.478 156.742 262.478C190.218 262.478 218.393 240.021 227.164 209.34C232.69 211.171 238.569 212.199 244.706 212.199C275.483 212.199 300.446 187.237 300.446 156.459C300.414 125.681 275.483 100.718 244.673 100.718Z" fill="#F16F42" fill-opacity="0.19"/>
<path d="M442.579 172.907H442.56C442.56 172.773 442.579 172.639 442.579 172.506C442.579 154.256 427.789 139.447 409.52 139.447C407.17 139.447 404.877 139.695 402.679 140.173C396.125 124.236 380.475 113 362.168 113C348.429 113 336.18 119.344 328.154 129.243C322.826 126.533 316.933 125.119 310.956 125.115C291.178 125.115 274.935 140.173 273.044 159.454C251.546 160.601 234.29 178.219 234.004 200.099C233.698 222.877 251.947 241.604 274.725 241.89C276.502 241.91 278.222 241.795 279.942 241.585C288.751 260.159 307.65 273 329.568 273C342.792 273 354.907 268.318 364.385 260.541C371.627 265.911 380.57 269.121 390.278 269.121C410.189 269.121 426.948 255.764 432.165 237.515C435.451 238.604 438.948 239.215 442.598 239.215C460.905 239.215 475.752 224.368 475.752 206.061C475.733 187.755 460.905 172.907 442.579 172.907Z" fill="#F16F42" fill-opacity="0.52"/>
<path d="M253.594 233.812C262.069 235.544 268.883 245.619 279.174 269.359C279.345 269.753 278.842 270.095 278.54 269.791C270.266 261.445 264.458 256.771 255.679 246.15C255.639 246.102 255.611 246.044 255.598 245.982L253.156 234.262C253.101 233.996 253.329 233.758 253.594 233.812Z" fill="#344E91"/>
<path d="M279.488 269.199C278.352 251.667 269.42 230.706 250.459 207.307C249.963 206.695 248.987 207.133 249.112 207.911L253.213 233.431C253.265 233.754 253.516 234.007 253.834 234.081C262.751 236.13 268.666 247.332 278.117 269.489C278.448 270.266 279.543 270.041 279.488 269.199Z" fill="#4A64AA"/>
<path d="M135.406 233.812C126.931 235.544 120.117 245.619 109.826 269.359C109.655 269.753 110.158 270.095 110.46 269.791C118.734 261.445 124.542 256.771 133.321 246.15C133.361 246.102 133.389 246.044 133.402 245.982L135.844 234.262C135.899 233.996 135.671 233.758 135.406 233.812Z" fill="#344E91"/>
<path d="M109.512 269.199C110.648 251.667 119.581 230.706 138.542 207.307C139.038 206.695 140.014 207.133 139.889 207.911L135.787 233.431C135.735 233.754 135.485 234.007 135.166 234.081C126.25 236.13 120.335 247.332 110.883 269.489C110.552 270.266 109.457 270.041 109.512 269.199Z" fill="#4A64AA"/>
<path d="M246.859 185.592C244.014 114.039 147.169 114.233 141.472 185.592C140.743 203.925 138.04 218.661 132.213 231.554C126.385 244.447 121.098 262.805 120.606 273.256C120.606 349.998 269.217 350.615 267.725 273.256C267.556 264.481 264.525 245.355 259.611 231.554C253.856 215.391 247.528 202.409 246.859 185.592Z" fill="#4A64AA"/>
<path d="M155.425 174.112C155.425 162.19 161.356 152.891 173.212 152.891C179.5 152.891 186.149 156.645 192.651 171.14C193.096 172.133 194.581 172.073 194.954 171.051C200.2 156.692 207.381 153.39 214.096 152.891C225.952 152.891 232.414 162.19 232.414 174.112C232.414 180.027 231.508 189.817 229.894 201.517C229.214 206.441 230.419 211.446 233.08 215.645C266.533 268.437 251.18 310.544 193.919 310.544C136.902 310.544 119.687 265.934 154.239 215.95C157.276 211.555 158.722 206.19 157.978 200.9C156.343 189.264 155.425 179.657 155.425 174.112Z" fill="#D4E4FE"/>
<path fill-rule="evenodd" clip-rule="evenodd" d="M215.083 189.645C219.827 189.645 223.673 184.102 223.673 177.265C223.673 170.427 219.827 164.885 215.083 164.885C213.054 164.885 211.19 165.898 209.72 167.593C209.741 167.593 209.761 167.593 209.781 167.593C212.025 167.593 213.844 169.411 213.844 171.655C213.844 173.898 212.025 175.717 209.781 175.717C208.568 175.717 207.478 175.185 206.734 174.341C206.576 175.278 206.493 176.258 206.493 177.265C206.493 184.102 210.339 189.645 215.083 189.645Z" fill="black"/>
<path fill-rule="evenodd" clip-rule="evenodd" d="M206.734 174.341C207.188 171.636 208.259 169.278 209.72 167.593C209.741 167.593 209.761 167.593 209.781 167.593C212.025 167.593 213.844 169.411 213.844 171.655C213.844 173.898 212.025 175.717 209.781 175.717C208.568 175.717 207.478 175.185 206.734 174.341Z" fill="white"/>
<path d="M204.442 199.77C204.442 199.77 200.703 186.951 195.219 186.559C189.736 186.167 182.507 198.523 182.507 198.523C182.507 198.523 184.731 221.846 193.973 220.957C202.778 220.11 204.442 199.77 204.442 199.77Z" fill="#F16F42"/>
<path d="M193.973 220.948C203.179 220.3 204.442 199.761 204.442 199.761L199.931 200.122C198.848 200.208 197.869 200.8 197.289 201.718C196.187 203.463 193.81 203.857 192.204 202.56L189.848 200.657C189.119 200.068 188.259 199.665 187.34 199.481L182.507 198.514C182.507 198.514 184.159 221.639 193.973 220.948Z" fill="#FD916D"/>
<path d="M193.525 203.133C191.409 201.72 189.808 200.553 188.089 199.67C187.117 199.171 186.067 199.953 186.177 201.041C186.688 206.095 188.515 217.795 194.472 217.218C199.84 216.698 201.087 206.543 201.371 201.22C201.44 199.927 199.976 199.236 198.976 200.058L195.348 203.038C194.826 203.467 194.086 203.508 193.525 203.133Z" fill="#8A2B0A"/>
<path d="M196.964 212.233C196.964 214.986 196.466 217.218 193.973 217.218C191.48 217.218 190.982 214.986 190.982 212.233C190.982 209.48 192.321 207.248 193.973 207.248C195.625 207.248 196.964 209.48 196.964 212.233Z" fill="#FF8181"/>
<path d="M149.161 328.267L142.85 329.979C142.08 330.188 141.408 329.498 141.702 328.757C143.272 324.807 148.215 315.324 159.487 315.38C172.348 315.444 176.398 326.587 177.499 331.01C177.693 331.788 176.926 332.383 176.19 332.064L168.471 328.718C167.232 328.18 165.802 328.328 164.7 329.107L161.482 331.38C160.264 332.241 158.658 332.325 157.357 331.595L152.067 328.627C151.183 328.131 150.139 328.001 149.161 328.267Z" fill="#F16F42"/>
<path d="M218.799 329.555L212.488 331.267C211.719 331.476 211.046 330.786 211.341 330.045C212.91 326.095 217.853 316.612 229.125 316.668C241.986 316.732 246.036 327.875 247.137 332.298C247.331 333.076 246.564 333.671 245.828 333.352L238.109 330.006C236.87 329.468 235.441 329.616 234.338 330.395L231.12 332.668C229.902 333.529 228.297 333.613 226.995 332.883L221.705 329.915C220.821 329.419 219.777 329.289 218.799 329.555Z" fill="#F16F42"/>
<path fill-rule="evenodd" clip-rule="evenodd" d="M173.301 189.645C178.045 189.645 181.891 184.102 181.891 177.265C181.891 170.427 178.045 164.885 173.301 164.885C171.272 164.885 169.407 165.898 167.938 167.593C167.958 167.593 167.978 167.593 167.999 167.593C170.242 167.593 172.061 169.411 172.061 171.655C172.061 173.898 170.242 175.717 167.999 175.717C166.785 175.717 165.696 175.185 164.951 174.341C164.794 175.278 164.71 176.258 164.71 177.265C164.71 184.102 168.556 189.645 173.301 189.645Z" fill="black"/>
<path fill-rule="evenodd" clip-rule="evenodd" d="M164.951 174.341C165.406 171.636 166.477 169.278 167.938 167.593C167.958 167.593 167.978 167.593 167.999 167.593C170.242 167.593 172.061 169.411 172.061 171.655C172.061 173.898 170.242 175.717 167.999 175.717C166.785 175.717 165.696 175.185 164.951 174.341Z" fill="white"/>
<path d="M226.128 51.1348C226.128 32.0839 209.799 16.9917 190.253 19.2184C175.408 20.9503 163.532 32.8262 162.048 47.671C160.811 59.052 165.512 69.196 173.429 75.6288C176.893 78.5977 179.119 82.8038 179.119 87.5046V88.2469H208.809V87.9995C208.809 83.546 210.788 79.0926 214.252 76.1236C221.427 70.1857 226.128 61.2788 226.128 51.1348Z" fill="#FBC02D"/>
<path d="M210.294 46.6815L202.872 41.7332C202.129 41.2384 200.892 41.2384 200.15 41.7332L193.965 45.6918L188.027 41.7332C187.284 41.2384 186.047 41.2384 185.305 41.7332L177.883 46.6815C177.388 47.1763 176.893 47.6711 176.893 48.4134C176.893 49.1556 176.893 49.8978 177.388 50.3927L186.79 62.0211V88.247H191.738V61.0315C191.738 60.5366 191.49 60.0418 191.243 59.547L183.078 49.403L186.79 46.9289L192.728 50.8875C193.47 51.3823 194.707 51.3823 195.449 50.8875L201.387 46.9289L205.098 49.403L196.934 59.547C196.686 60.0418 196.439 60.5366 196.439 61.0315V88.247H201.387V62.0211L210.789 50.3927C211.284 49.8978 211.531 49.1556 211.284 48.4134C211.036 47.6711 210.789 46.9289 210.294 46.6815Z" fill="#FFF59D"/>
<path d="M193.964 112.988C198.064 112.988 201.387 109.665 201.387 105.566C201.387 101.467 198.064 98.1434 193.964 98.1434C189.865 98.1434 186.542 101.467 186.542 105.566C186.542 109.665 189.865 112.988 193.964 112.988Z" fill="#5C6BC0"/>
<path d="M198.913 108.04H189.016C183.573 108.04 179.12 103.587 179.12 98.1434V85.7727H208.809V98.1434C208.809 103.587 204.356 108.04 198.913 108.04Z" fill="#9FA8DA"/>
<path d="M208.809 98.1435L180.109 102.102C180.852 103.834 182.336 105.566 184.068 106.556L207.325 103.339C208.314 101.855 208.809 100.123 208.809 98.1435ZM179.12 92.453V97.4013L208.809 93.1952V88.2469L179.12 92.453Z" fill="#344E91"/>
</svg>
