<svg width="60" height="60" viewBox="0 0 60 60" fill="none" xmlns="http://www.w3.org/2000/svg">
<g id="Group 79">
<circle id="Ellipse 48" cx="30" cy="30" r="30" fill="#FFEAE2"/>
<g id="Group">
<path id="Vector" d="M43.1268 24.5714C43.1281 22.2857 42.5518 20.0367 41.4514 18.0333C40.3509 16.0299 38.762 14.3371 36.8322 13.1122C34.9024 11.8872 32.6943 11.1698 30.4131 11.0266C28.1318 10.8835 25.8514 11.3191 23.7836 12.2931C21.7158 13.2672 19.9277 14.748 18.5853 16.598C17.243 18.4481 16.3899 20.6074 16.1055 22.8753C15.821 25.1433 16.1143 27.4464 16.9581 29.5706C17.802 31.6949 19.169 33.5715 20.9321 35.026V46.7661C20.932 46.9764 20.9856 47.1832 21.0879 47.3669C21.1903 47.5506 21.3379 47.7051 21.5167 47.8157C21.6956 47.9263 21.8998 47.9893 22.1098 47.9988C22.3199 48.0082 22.5289 47.9638 22.717 47.8697L29.5634 44.4541L36.4114 47.8774C36.583 47.9595 36.7713 48.0012 36.9616 47.9991C37.2886 47.9991 37.6023 47.8692 37.8335 47.638C38.0647 47.4067 38.1946 47.0931 38.1946 46.7661V35.026C39.7374 33.7554 40.9797 32.1591 41.8324 30.3515C42.6852 28.544 43.1272 26.5701 43.1268 24.5714ZM18.4661 24.5714C18.4661 22.3766 19.1169 20.231 20.3363 18.4061C21.5557 16.5812 23.2889 15.1588 25.3166 14.3189C27.3444 13.4789 29.5757 13.2592 31.7284 13.6874C33.881 14.1155 35.8584 15.1725 37.4104 16.7245C38.9624 18.2764 40.0193 20.2538 40.4475 22.4065C40.8757 24.5591 40.6559 26.7904 39.816 28.8182C38.976 30.846 37.5537 32.5791 35.7287 33.7985C33.9038 35.0179 31.7582 35.6688 29.5634 35.6688C26.6212 35.6655 23.8005 34.4953 21.72 32.4148C19.6396 30.3344 18.4693 27.5136 18.4661 24.5714ZM35.7286 44.7716L30.1136 41.965C29.9423 41.8792 29.7534 41.8346 29.5618 41.8346C29.3703 41.8346 29.1814 41.8792 29.0101 41.965L23.3982 44.7716V36.6506C25.3069 37.6261 27.4198 38.1348 29.5634 38.1348C31.7069 38.1348 33.8199 37.6261 35.7286 36.6506V44.7716ZM29.5634 33.2027C31.2705 33.2027 32.9393 32.6965 34.3587 31.7481C35.7781 30.7997 36.8843 29.4516 37.5376 27.8745C38.1909 26.2973 38.3618 24.5619 38.0288 22.8876C37.6958 21.2133 36.8737 19.6753 35.6666 18.4682C34.4595 17.2611 32.9216 16.4391 31.2473 16.106C29.573 15.773 27.8375 15.9439 26.2604 16.5972C24.6832 17.2505 23.3352 18.3568 22.3868 19.7762C21.4384 21.1956 20.9321 22.8643 20.9321 24.5714C20.9346 26.8598 21.8447 29.0538 23.4629 30.672C25.081 32.2901 27.275 33.2002 29.5634 33.2027ZM29.5634 18.4063C30.7827 18.4063 31.9747 18.7678 32.9886 19.4453C34.0024 20.1227 34.7926 21.0856 35.2593 22.2121C35.7259 23.3387 35.848 24.5783 35.6101 25.7742C35.3722 26.9701 34.785 28.0687 33.9228 28.9309C33.0606 29.7931 31.9621 30.3803 30.7662 30.6182C29.5702 30.856 28.3306 30.734 27.2041 30.2673C26.0775 29.8007 25.1147 29.0105 24.4372 27.9966C23.7598 26.9828 23.3982 25.7908 23.3982 24.5714C23.3982 22.9363 24.0478 21.3682 25.204 20.212C26.3601 19.0558 27.9283 18.4063 29.5634 18.4063Z" fill="#FEC5B2"/>
</g>
</g>
</svg>
