<svg width="334" height="340" viewBox="0 0 334 340" fill="none" xmlns="http://www.w3.org/2000/svg">
<path d="M283 215.581C283 267.727 240.813 310 188.774 310C136.734 310 56 267.727 56 215.581C56 163.434 72.489 125.452 124.529 125.452C148.687 125.452 188.774 44.9807 245.524 72.8771C281.893 89.0208 283 187.642 283 215.581Z" fill="#FFEAE2"/>
<path d="M218.116 260.76C213.366 261.454 209.969 260.333 204.988 259.443L184.833 254.3L166.99 264.99C164.055 267.035 159.536 269.312 154.787 270.005C151.62 270.467 150.037 270.699 146.639 269.578L147.737 332.479L190.612 293.881L242.731 318.612L224.218 258.252C222.866 260.067 219.699 260.529 218.116 260.76ZM249.469 154.314C247.423 151.379 246.73 146.629 247.851 143.231L254.577 122.846C256.819 116.051 252.496 108.597 244.118 106.586L222.38 101.675C218.983 100.554 215.354 97.8494 213.309 94.914L202.388 75.4877C199.88 69.3859 194.668 66.9128 189.919 67.6062C188.335 67.8373 185.169 68.2996 183.817 70.1139L164.621 82.6179L159.872 83.3113C158.289 83.5424 156.705 83.7736 154.891 82.4215L133.153 77.5099C131.339 76.1578 128.173 76.6201 126.589 76.8512C121.84 77.5446 117.552 81.4044 115.079 86.6164L110.399 109.937C110.861 113.104 108.157 116.732 105.221 118.778L84.2119 129.93C78.1101 132.437 76.0992 140.816 80.4213 148.27L92.9253 167.465C94.9708 170.4 95.6642 175.15 94.5432 178.548L87.8173 198.933C85.5754 205.728 89.8975 213.182 98.2759 215.193L120.013 220.105C123.411 221.226 127.04 223.93 129.085 226.865L140.006 246.291C142.514 252.393 147.726 254.866 152.475 254.173C154.059 253.942 155.642 253.711 156.994 251.896L176.189 239.392C177.772 239.161 179.125 237.347 180.708 237.116C182.291 236.885 183.874 236.653 185.689 238.006L207.657 244.5C209.472 245.852 211.055 245.621 212.638 245.39C217.388 244.697 221.675 240.837 224.148 235.625L229.06 213.887C230.181 210.49 232.885 206.861 235.82 204.816L255.247 193.895C261.117 189.804 264.711 181.194 260.62 175.324L249.469 154.314ZM180.442 224.219C145.611 229.303 112.953 204.966 107.868 170.135C102.783 135.304 127.121 102.645 161.952 97.5604C196.783 92.4756 229.441 116.813 234.526 151.645C239.611 186.476 215.273 219.134 180.442 224.219Z" fill="#F16F42"/>
<path d="M218.692 153.956C220.531 166.553 217.291 179.365 209.684 189.572C202.077 199.78 190.726 206.548 178.129 208.387C165.532 210.226 152.721 206.985 142.513 199.378C132.305 191.771 125.537 180.421 123.698 167.824C121.859 155.227 125.1 142.415 132.707 132.207C140.314 122 151.665 115.232 164.262 113.393C176.858 111.554 189.67 114.795 199.878 122.402C210.086 130.009 216.853 141.359 218.692 153.956Z" fill="#F16F42"/>
<path d="M121.487 164.839C124.193 200.451 157.587 212.818 178.957 210.552C203.856 207.913 229.26 186.937 224.464 153.128C219.961 121.404 192.007 108.818 168.565 110.764C141.321 113.043 119.124 133.73 121.487 164.839Z" fill="#F16F42"/>
<path d="M177.42 205.257C177.049 205.285 176.662 205.315 176.29 205.328C165.114 205.803 153.743 201.943 145.094 194.752C135.839 187.054 130.254 176.117 129.391 163.969C127.272 134.307 152.149 118.589 169.733 117.253L169.881 117.241C193.715 115.535 214.682 132.569 217.139 157.631C218.226 168.79 215.504 180.179 207.197 189.69C199.438 198.532 187.691 204.477 177.42 205.257ZM170.078 122.19C154.308 123.388 131.967 138.061 133.85 163.63C135.258 182.748 151.555 201.273 176.276 200.232C185.692 199.815 196.026 195.532 203.246 187.27C210.755 178.671 213.606 167.99 212.686 158.044C210.689 136.475 191.726 120.635 170.286 122.174C170.239 122.147 170.122 122.186 170.078 122.19Z" fill="#AB4213"/>
<path d="M160.807 116.077C159.674 114.743 149.197 115.942 138.625 126.537C128.124 137.067 127.257 147.896 129.322 148.307C131.674 148.772 133.697 138.213 142.742 128.781C151.056 120.151 163.057 118.731 160.807 116.077ZM208.932 151.542C205.389 152.32 209.92 162.769 202.524 175.41C196.106 186.377 188.218 190.773 189.344 192.99C190.854 195.954 203.37 187.335 208.49 174.448C213.12 162.78 211.563 150.954 208.932 151.542Z" fill="#FEFFFA"/>
<path d="M102.128 246.975C102.26 246.493 102.137 245.982 101.83 245.614L99.2206 242.466C98.8516 242.022 98.2667 241.826 97.7161 241.94C97.1475 242.067 96.7071 242.494 96.5613 243.048C96.5523 243.066 95.8652 245.464 93.7171 246.674C92.17 247.539 90.184 247.61 87.8038 246.887C81.4672 244.969 78.9057 248.413 77.0508 250.926C75.2861 253.306 74.3822 254.317 71.6148 253.23C68.5394 252.021 65.8247 252.025 63.5379 253.244C59.8791 255.18 58.8606 259.518 58.815 259.697C58.7054 260.157 58.8283 260.645 59.135 261.013L61.7448 264.161C61.8826 264.331 62.0519 264.462 62.2304 264.552C62.437 264.657 62.6648 264.714 62.8965 264.718C63.1283 264.722 63.358 264.674 63.5682 264.576C63.7785 264.479 63.9638 264.334 64.1102 264.155C64.2566 263.975 64.3602 263.764 64.4133 263.539C64.4268 263.512 65.1891 260.367 67.6013 259.1C69.063 258.338 70.9143 258.378 73.1104 259.243C78.19 261.231 80.4635 258.157 82.1247 255.915C83.8804 253.554 85.2536 251.682 89.5271 252.982C92.7334 253.955 95.5248 253.799 97.8253 252.508C101.126 250.637 102.096 247.127 102.128 246.975Z" fill="#ABD6A0"/>
<path d="M93.0785 291.206C91.8799 288.481 92.846 287.546 95.1494 285.675C97.5874 283.714 100.928 281.012 98.7358 274.758C97.9199 272.428 97.9073 270.438 98.6931 268.863C99.7997 266.632 102.192 265.848 102.21 265.835C102.756 265.663 103.156 265.204 103.262 264.641C103.359 264.074 103.142 263.505 102.679 263.158L99.4264 260.683C99.0387 260.386 98.5249 260.294 98.0501 260.434C97.9112 260.487 94.4265 261.593 92.7239 264.979C91.5362 267.325 91.5091 270.125 92.5982 273.288C94.0758 277.499 92.2708 278.961 89.9765 280.815C87.8078 282.575 84.8355 284.971 87.0293 289.959C87.9847 292.124 88.1143 293.972 87.4048 295.462C86.2434 297.934 83.1353 298.827 83.113 298.827C82.5443 298.976 82.126 299.448 82.0115 300.006C81.8968 300.587 82.1176 301.17 82.5899 301.521L85.8425 303.996C85.9138 304.055 85.9896 304.104 86.0699 304.145C86.4 304.312 86.7933 304.354 87.165 304.262C87.3486 304.209 91.6388 303.018 93.4191 299.28C94.5128 296.941 94.4054 294.231 93.0785 291.206ZM73.8454 280.799C77.5647 278.366 78.0206 274.764 78.0437 274.607C78.0905 274.183 77.963 273.748 77.6649 273.429L75.121 270.528C74.7296 270.083 74.1044 269.901 73.5311 270.082C72.9623 270.253 72.5305 270.752 72.4516 271.351C72.4377 271.445 72.1 273.728 69.628 275.335C68.4974 276.063 67.5359 276.058 66.3106 276.043C64.9199 276.023 63.1848 275.997 61.4339 277.375C59.7998 278.655 59.1831 280.382 58.6256 281.905C58.1223 283.298 57.6872 284.49 56.5873 285.334C55.4201 286.245 54.1539 286.355 52.6864 286.486C51.2323 286.614 49.5903 286.758 47.9621 287.738C46.5762 288.572 45.7825 289.919 45.0068 291.23C43.7397 293.357 42.8523 294.667 40.4373 294.678C39.8425 294.679 39.2951 295.03 39.042 295.574C38.7978 296.123 38.8886 296.763 39.2889 297.212L41.8328 300.114C41.9573 300.266 42.1222 300.384 42.2917 300.469C42.5058 300.578 42.7381 300.628 42.9841 300.629C47.2461 300.623 48.9461 297.774 50.1728 295.682C50.7815 294.657 51.3498 293.689 52.0808 293.263C53.1035 292.638 54.222 292.554 55.5061 292.43C57.2108 292.273 59.1212 292.108 61.0022 290.651C62.8069 289.255 63.4687 287.438 64.0356 285.831C64.5026 284.532 64.9151 283.407 65.8578 282.674C66.7198 281.989 67.4578 281.97 68.8038 281.99C70.217 282.011 71.9475 282.046 73.8454 280.799ZM42.5819 245.753C44.1257 246.468 45.8839 247.268 48.2379 246.935C50.4979 246.611 51.9575 245.366 53.2688 244.258C54.3286 243.36 55.2358 242.587 56.4217 242.413C57.6301 242.24 58.4147 242.75 59.311 243.282C59.6633 243.494 60.029 243.701 60.3948 243.886C61.2067 244.297 62.4832 244.831 64.2725 244.728C68.7057 244.473 70.889 241.554 70.9835 241.434C71.2356 241.091 71.3273 240.644 71.2488 240.223L70.4758 236.436C70.3579 235.849 69.8906 235.378 69.3054 235.249C68.7202 235.121 68.1108 235.351 67.7507 235.841C67.7327 235.854 66.297 237.717 63.3311 237.886C62.5079 237.94 61.8334 237.789 61.0125 237.373C60.7002 237.215 60.397 237.039 60.0937 236.864C59.7504 236.656 59.4115 236.462 59.0546 236.282C58.1623 235.83 56.9259 235.35 55.2028 235.61C53.1441 235.913 51.7564 237.104 50.5169 238.158C49.3942 239.114 48.4197 239.932 47.0413 240.131C45.5824 240.334 44.4267 239.806 43.088 239.195C41.7672 238.594 40.2679 237.902 38.3625 237.947C36.7479 237.993 35.3846 238.76 34.075 239.509C31.9941 240.697 30.6223 241.37 28.6594 240.377L28.3963 240.232C27.8923 239.944 27.2303 239.967 26.7366 240.323C26.2564 240.674 26.0164 241.281 26.1432 241.872L26.9162 245.659C27.0125 246.089 27.2835 246.461 27.6581 246.673C27.7875 246.75 27.9168 246.827 28.0506 246.894C31.5749 248.678 34.3419 247.108 36.3601 245.956C37.3871 245.366 38.3737 244.812 39.2146 244.789C40.391 244.745 41.4083 245.216 42.5819 245.753Z" fill="#D7598B"/>
<path d="M49.7989 263.315L51.9259 259.113C52.3097 258.354 52.0012 257.436 51.2517 257.057L47.0404 254.925C46.2909 254.546 45.3682 254.841 44.9844 255.599L42.8574 259.802C42.4736 260.56 42.7732 261.474 43.5316 261.858L47.7429 263.989C48.5013 264.373 49.4196 264.065 49.7989 263.315Z" fill="#ABD6A0"/>
<path d="M49.6968 222.041L45.2219 223.508C44.4156 223.773 43.9775 224.638 44.2464 225.435L45.7092 229.919C45.846 230.313 46.1217 230.632 46.4696 230.808C46.8265 230.989 47.2422 231.031 47.6365 230.895L52.1248 229.423C52.9311 229.159 53.3646 228.302 53.1002 227.496L51.624 223.016C51.3596 222.21 50.4941 221.772 49.6968 222.041Z" fill="#40C0E7"/>
<path d="M37.1047 226.326C37.4944 226.198 37.8088 225.931 37.9939 225.566C38.1745 225.209 38.2079 224.789 38.0801 224.399L36.6084 219.911C36.3572 219.145 35.4471 218.684 34.6812 218.935L30.2018 220.411C29.812 220.539 29.4842 220.81 29.3036 221.167C29.1185 221.533 29.0985 221.949 29.2263 222.339L30.6937 226.813C30.7557 227.004 30.8548 227.181 30.9854 227.334C31.1159 227.486 31.2753 227.611 31.4544 227.702C31.6335 227.793 31.8288 227.847 32.029 227.862C32.2292 227.877 32.4303 227.852 32.6209 227.789L37.1047 226.326Z" fill="#ABD6A0"/>
<path d="M37.915 262.68C37.6684 261.905 36.7583 261.445 35.9789 261.7L31.504 263.168C30.6977 263.432 30.2597 264.297 30.5241 265.104L31.9914 269.579C32.0534 269.769 32.1525 269.946 32.2831 270.099C32.4137 270.251 32.5731 270.376 32.7522 270.467C32.9313 270.558 33.1265 270.612 33.3267 270.627C33.5269 270.642 33.728 270.617 33.9186 270.554L38.3935 269.087C39.1998 268.822 39.6378 267.957 39.3735 267.15L37.915 262.68ZM66.171 298.176C65.9066 297.369 65.0412 296.931 64.2349 297.196L60.0287 298.575C59.2225 298.839 58.7844 299.705 59.0488 300.511L60.428 304.717C60.49 304.908 60.5892 305.085 60.7197 305.237C60.8503 305.39 61.0097 305.515 61.1888 305.606C61.3679 305.696 61.5632 305.751 61.7633 305.765C61.9635 305.78 62.1647 305.756 62.3552 305.692L66.5614 304.313C67.3677 304.049 67.8057 303.183 67.5413 302.377L66.171 298.176ZM113.476 298.581C113.538 298.772 113.637 298.949 113.768 299.102C113.898 299.254 114.058 299.379 114.237 299.47C114.416 299.561 114.611 299.615 114.811 299.63C115.011 299.645 115.213 299.62 115.403 299.557L119.618 298.182C120.415 297.913 120.849 297.057 120.594 296.255L119.205 292.044C118.941 291.238 118.076 290.8 117.278 291.069L113.072 292.448C112.266 292.713 111.832 293.569 112.097 294.375L113.476 298.581ZM95.0042 313.509C94.7488 312.707 93.8744 312.264 93.0681 312.529L88.8619 313.908C88.0646 314.177 87.6265 315.042 87.882 315.844L89.2612 320.05C89.3979 320.444 89.6826 320.768 90.0305 320.944C90.3785 321.12 90.7942 321.162 91.1973 321.03L95.4035 319.651C96.2098 319.387 96.6478 318.521 96.3834 317.715L95.0042 313.509ZM47.9066 280.806L50.0336 276.603C50.4129 275.854 50.1089 274.927 49.3594 274.547L45.1481 272.416C44.3897 272.032 43.4714 272.34 43.0921 273.09L40.9651 277.292C40.5813 278.051 40.8809 278.964 41.6393 279.348L45.8506 281.48C46.6001 281.859 47.5273 281.555 47.9066 280.806Z" fill="#40C0E7"/>
<path d="M76.0632 288.22L72.1106 286.219C71.3612 285.84 70.4384 286.135 70.0546 286.893L68.0541 290.846C67.6747 291.596 67.9788 292.523 68.7282 292.902L72.6808 294.903C73.4303 295.282 74.3575 294.978 74.7368 294.228L76.7374 290.276C77.1212 289.517 76.8216 288.604 76.0632 288.22ZM29.386 277.45L25.1747 275.319C24.4252 274.94 23.498 275.244 23.1186 275.993L20.9917 280.196C20.6123 280.945 20.9164 281.872 21.6659 282.252L25.8772 284.383C26.6356 284.767 27.5539 284.458 27.9332 283.709L30.0602 279.506C30.444 278.748 30.1444 277.834 29.386 277.45Z" fill="#ABD6A0"/>
<path d="M23.4116 259.071C23.1561 258.27 22.2906 257.832 21.4843 258.096L17.0049 259.572C16.6063 259.696 16.3009 259.967 16.1157 260.333C15.9306 260.699 15.8972 261.119 16.0295 261.5L17.4968 265.974C17.5588 266.165 17.658 266.342 17.7885 266.495C17.9191 266.647 18.0785 266.772 18.2576 266.863C18.4367 266.954 18.632 267.008 18.8322 267.023C19.0323 267.038 19.2335 267.013 19.4241 266.95L23.899 265.483C24.7052 265.218 25.1433 264.353 24.8744 263.555L23.4116 259.071Z" fill="#40C0E7"/>
<path d="M41.3642 207.68C42.8199 209.056 44.8966 209.625 46.59 209.955C47.9348 210.221 49.1767 210.513 49.9868 211.282C50.7971 212.028 50.9277 212.767 51.109 214.092C51.2991 215.466 51.5322 217.175 53.0489 218.873C53.8807 219.798 54.843 220.554 55.9047 221.092C56.2259 221.254 56.5294 221.386 56.8284 221.503C57.5337 221.771 58.3447 221.475 58.7101 220.819L60.5149 217.563C60.7179 217.207 60.7336 216.755 60.6103 216.356C60.487 215.958 60.1712 215.607 59.8054 215.422C59.0381 215.034 58.3831 214.534 57.8138 213.887C56.9198 212.886 56.7858 211.933 56.6263 210.72C56.4319 209.333 56.1898 207.618 54.5739 206.094C53.2294 204.831 51.3536 204.33 49.6826 204C48.235 203.716 46.8994 203.387 45.9691 202.501C45.3859 201.949 44.9911 201.289 44.6783 200.335C44.5194 199.896 44.1679 199.528 43.7259 199.382C43.2794 199.224 42.7872 199.288 42.3879 199.546L39.5615 201.365C39.0097 201.725 38.7426 202.386 38.9094 203.03C39.2868 204.499 39.824 206.206 41.3642 207.68ZM117.665 324.429C117.474 324.119 117.252 323.984 117.011 323.817C114.349 322.1 112.392 319.922 111.322 317.564C116.25 317.615 119.708 314.636 120.663 312.239C120.708 312.15 120.758 312.029 120.799 311.904C122.18 308.445 121.225 305.283 118.37 303.838C117.665 303.481 116.852 303.227 115.896 303.057C114.694 302.84 111.213 302.233 106.518 307.568C105.242 305.151 104.765 302.108 105.184 298.778C105.225 298.474 105.262 298.224 105.143 297.883C104.892 297.117 103.991 296.661 103.216 296.908L98.7636 298.375C97.9976 298.626 97.5644 299.416 97.7574 300.186C97.7049 299.958 97.7101 299.815 97.7009 299.855C96.8642 306.335 98.9168 311.846 103.328 315.088C103.106 320.422 105.988 325.4 111.445 328.924C111.525 328.987 111.605 329.028 111.695 329.073C112.15 329.303 112.722 329.302 113.193 329.013L117.172 326.555C117.881 326.085 118.1 325.142 117.665 324.429ZM113.28 311.326C112.448 311.353 111.647 311.318 110.977 311.248C111.248 310.623 111.618 309.891 112.087 309.187C112.624 308.304 114.28 307.865 115.253 308.357C115.494 308.479 115.676 308.65 115.8 308.87C116.053 309.3 116.06 309.819 115.825 310.239C115.46 310.894 114.559 311.279 113.28 311.326Z" fill="#ABD6A0"/>
<path d="M243.728 103.493C243.252 103.647 242.736 103.548 242.355 103.258L239.09 100.796C238.629 100.447 238.407 99.872 238.496 99.3168C238.596 98.743 239.003 98.2835 239.549 98.1124C239.567 98.1025 241.931 97.3061 243.041 95.1047C243.834 93.5196 243.814 91.5324 242.982 89.1879C240.775 82.946 244.099 80.2291 246.524 78.2608C248.82 76.3887 249.788 75.4394 248.576 72.7248C247.227 69.7081 247.107 66.9961 248.219 64.6558C249.985 60.912 254.272 59.6955 254.448 59.6417C254.903 59.5111 255.396 59.6114 255.778 59.901L259.042 62.3635C259.219 62.4934 259.357 62.6565 259.455 62.8306C259.57 63.0322 259.637 63.2571 259.652 63.4885C259.666 63.7198 259.628 63.9514 259.541 64.1659C259.453 64.3805 259.317 64.5722 259.144 64.7267C258.972 64.8812 258.766 64.9944 258.543 65.0578C258.517 65.0725 255.411 65.9783 254.255 68.4462C253.561 69.9413 253.686 71.7887 254.651 73.9428C256.87 78.9258 253.903 81.3381 251.741 83.1004C249.462 84.9627 247.655 86.4203 249.15 90.6296C250.269 93.7879 250.241 96.5835 249.058 98.9409C247.34 102.324 243.878 103.454 243.728 103.493Z" fill="#ABD6A0"/>
<path d="M287.496 92.4232C284.719 91.3509 283.83 92.3589 282.066 94.7458C280.22 97.2712 277.673 100.732 271.325 98.8295C268.961 98.1214 266.972 98.2001 265.435 99.0574C263.258 100.265 262.584 102.691 262.571 102.709C262.425 103.263 261.985 103.684 261.427 103.815C260.865 103.938 260.287 103.748 259.919 103.301L257.297 100.165C256.982 99.7918 256.867 99.2827 256.986 98.802C257.032 98.6608 257.977 95.1289 261.281 93.2727C263.571 91.9786 266.366 91.823 269.575 92.7659C273.85 94.0486 275.228 92.1784 276.974 89.8014C278.633 87.5542 280.89 84.475 285.974 86.4375C288.18 87.2926 290.032 87.3372 291.488 86.5602C293.904 85.2865 294.653 82.1407 294.652 82.1184C294.775 81.5434 295.227 81.104 295.78 80.9639C296.355 80.8227 296.947 81.0165 297.319 81.4723L299.941 84.6078C300.003 84.6763 300.056 84.7497 300.1 84.8281C300.282 85.1502 300.343 85.5412 300.268 85.9167C300.223 86.1025 299.231 90.4428 295.577 92.3929C293.292 93.5928 290.579 93.6098 287.496 92.4232ZM276.217 73.688C273.958 77.5151 270.381 78.1359 270.225 78.1661C269.803 78.2324 269.363 78.1249 269.031 77.8418L266.016 75.4337C265.554 75.0632 265.343 74.447 265.497 73.866C265.643 73.2899 266.121 72.8357 266.716 72.7293C266.809 72.7111 269.075 72.269 270.566 69.7258C271.242 68.5631 271.193 67.6028 271.122 66.3795C271.038 64.9911 270.932 63.2591 272.228 61.4468C273.431 59.7556 275.129 59.0603 276.624 58.4335C277.992 57.8669 279.163 57.3774 279.956 56.24C280.812 55.0322 280.864 53.7623 280.928 52.2903C280.988 50.8319 281.057 49.1851 281.961 47.5136C282.731 46.0908 284.04 45.2361 285.314 44.4011C287.381 43.0377 288.649 42.0911 288.549 39.6781C288.523 39.0838 288.848 38.521 289.38 38.2432C289.917 37.9741 290.561 38.0354 291.028 38.4146L294.043 40.8227C294.201 40.94 294.326 41.0994 294.419 41.2648C294.537 41.4737 294.598 41.7034 294.611 41.9491C294.8 46.2069 292.032 48.0359 289.999 49.3572C289.002 50.0124 288.062 50.6245 287.67 51.3743C287.092 52.4247 287.06 53.5458 286.995 54.8342C286.917 56.5443 286.839 58.4603 285.47 60.4062C284.158 62.273 282.374 63.0175 280.794 63.6576C279.518 64.1837 278.413 64.6474 277.724 65.6228C277.08 66.5153 277.095 67.2534 277.177 68.5971C277.262 70.0078 277.376 71.7349 276.217 73.688ZM239.774 44.066C240.559 45.5755 241.439 47.295 241.214 49.6618C240.994 51.9343 239.817 53.4495 238.771 54.8102C237.923 55.9102 237.192 56.8519 237.073 58.0446C236.956 59.2596 237.5 60.02 238.073 60.8909C238.301 61.2331 238.525 61.5889 238.727 61.9458C239.175 62.738 239.767 63.9886 239.746 65.7808C239.694 70.2211 236.879 72.5361 236.763 72.636C236.432 72.9036 235.989 73.0156 235.566 72.9566L231.747 72.3582C231.156 72.2673 230.663 71.8222 230.508 71.2435C230.353 70.6647 230.554 70.0455 231.028 69.6632C231.04 69.6447 232.835 68.125 232.867 65.1545C232.883 64.3297 232.702 63.6628 232.249 62.8618C232.077 62.5571 231.887 62.2623 231.698 61.9674C231.475 61.634 231.265 61.3043 231.068 60.9561C230.576 60.0855 230.04 58.8724 230.221 57.1392C230.429 55.0688 231.556 53.6278 232.551 52.3413C233.455 51.1759 234.227 50.1649 234.363 48.7788C234.499 47.3121 233.917 46.1819 233.246 44.8726C232.585 43.5808 231.825 42.1148 231.782 40.2094C231.754 38.5943 232.457 37.1973 233.146 35.8547C234.238 33.7214 234.847 32.3202 233.764 30.405L233.608 30.1487C233.297 29.6586 233.29 28.9962 233.622 28.4867C233.951 27.9909 234.546 27.7233 235.142 27.8228L238.961 28.4212C239.395 28.4977 239.779 28.7513 240.008 29.1158C240.091 29.2414 240.173 29.3671 240.247 29.4977C242.191 32.9364 240.75 35.7725 239.691 37.8415C239.149 38.8945 238.64 39.9055 238.656 40.7465C238.667 41.9236 239.183 42.9184 239.774 44.066Z" fill="#D7598B"/>
<path d="M257.649 50.4693L253.549 52.787C252.809 53.2052 251.877 52.9391 251.464 52.2078L249.141 48.0988C248.728 47.3675 248.98 46.4322 249.72 46.014L253.821 43.6964C254.561 43.2781 255.487 43.5355 255.906 44.2755L258.228 48.3845C258.646 49.1245 258.38 50.056 257.649 50.4693Z" fill="#ABD6A0"/>
<path d="M216.413 52.2618L217.674 47.7243C217.901 46.9067 218.745 46.4294 219.554 46.6614L224.1 47.9169C224.5 48.0354 224.832 48.2961 225.024 48.6357C225.22 48.9839 225.282 49.3972 225.163 49.7973L223.899 54.3485C223.672 55.166 222.836 55.6384 222.019 55.4113L217.476 54.1422C216.659 53.9151 216.181 53.0707 216.413 52.2618Z" fill="#40C0E7"/>
<path d="M220.116 39.486C220.006 39.8812 219.754 40.2074 219.397 40.4092C219.049 40.606 218.631 40.6586 218.236 40.5488L213.684 39.2847C212.908 39.0689 212.406 38.1809 212.622 37.4043L213.891 32.8618C214 32.4666 214.256 32.1267 214.605 31.9299C214.961 31.7282 215.376 31.6892 215.771 31.7989L220.309 33.0593C220.502 33.1125 220.683 33.2034 220.842 33.3269C221 33.4503 221.132 33.6038 221.231 33.7785C221.33 33.9533 221.393 34.1458 221.417 34.3451C221.441 34.5444 221.426 34.7465 221.372 34.9398L220.116 39.486Z" fill="#ABD6A0"/>
<path d="M256.469 38.6269C255.684 38.4161 255.182 37.5281 255.401 36.7378L256.662 32.2003C256.889 31.3827 257.733 30.9054 258.551 31.1325L263.088 32.3929C263.282 32.4461 263.463 32.537 263.621 32.6604C263.78 32.7838 263.912 32.9373 264.011 33.1121C264.11 33.2868 264.173 33.4794 264.197 33.6787C264.221 33.878 264.206 34.0801 264.151 34.2733L262.891 38.8108C262.664 39.6284 261.819 40.1057 261.002 39.8786L256.469 38.6269ZM293.224 65.2239C292.406 64.9968 291.929 64.1524 292.156 63.3348L293.341 59.0698C293.568 58.2523 294.413 57.7749 295.23 58.002L299.495 59.1868C299.689 59.2399 299.87 59.3308 300.028 59.4543C300.186 59.5777 300.319 59.7312 300.418 59.9059C300.516 60.0807 300.58 60.2733 300.604 60.4725C300.628 60.6718 300.612 60.8739 300.558 61.0672L299.373 65.3322C299.146 66.1497 298.302 66.627 297.484 66.3999L293.224 65.2239ZM295.801 112.46C295.994 112.513 296.175 112.604 296.334 112.728C296.492 112.851 296.624 113.005 296.723 113.179C296.822 113.354 296.885 113.547 296.909 113.746C296.933 113.945 296.918 114.147 296.864 114.341L295.684 118.614C295.452 119.423 294.616 119.896 293.803 119.677L289.533 118.484C288.716 118.257 288.239 117.412 288.471 116.603L289.655 112.338C289.882 111.521 290.718 111.049 291.536 111.276L295.801 112.46ZM309.864 93.323C309.052 93.1046 308.57 92.2514 308.797 91.4339L309.981 87.1689C310.213 86.36 311.058 85.8827 311.87 86.1011L316.135 87.2858C316.536 87.4043 316.872 87.6738 317.064 88.0133C317.255 88.3528 317.317 88.7661 317.203 89.1749L316.019 93.4399C315.791 94.2575 314.947 94.7348 314.129 94.5077L309.864 93.323ZM275.034 47.7761L270.934 50.0937C270.202 50.507 269.262 50.2458 268.849 49.5146L266.526 45.4055C266.108 44.6656 266.374 43.7341 267.106 43.3207L271.206 41.0031C271.946 40.5849 272.872 40.8422 273.291 41.5822L275.613 45.6913C276.027 46.4225 275.765 47.3627 275.034 47.7761Z" fill="#40C0E7"/>
<path d="M283.733 75.5627L281.553 71.7061C281.139 70.9749 281.392 70.0396 282.132 69.6213L285.989 67.4415C286.72 67.0282 287.66 67.2893 288.073 68.0206L290.253 71.8772C290.666 72.6084 290.405 73.5487 289.674 73.962L285.817 76.1418C285.077 76.5601 284.151 76.3027 283.733 75.5627ZM270.832 29.429L268.51 25.32C268.096 24.5887 268.357 23.6485 269.089 23.2352L273.189 20.9175C273.92 20.5042 274.861 20.7654 275.274 21.4966L277.596 25.6057C278.015 26.3457 277.749 27.2772 277.017 27.6905L272.917 30.0081C272.177 30.4264 271.25 30.169 270.832 29.429Z" fill="#ABD6A0"/>
<path d="M252.198 24.3043C251.386 24.0859 250.908 23.2415 251.136 22.4239L252.405 17.8815C252.509 17.4776 252.766 17.16 253.123 16.9583C253.48 16.7565 253.899 16.7039 254.285 16.8186L258.823 18.079C259.016 18.1322 259.197 18.2231 259.356 18.3465C259.514 18.4699 259.646 18.6234 259.745 18.7982C259.844 18.9729 259.907 19.1655 259.931 19.3648C259.955 19.5641 259.94 19.7662 259.885 19.9594L258.625 24.4969C258.398 25.3145 257.553 25.7918 256.745 25.5598L252.198 24.3043Z" fill="#40C0E7"/>
<path d="M201.685 44.5969C203.126 45.9879 203.79 48.0364 204.198 49.7128C204.525 51.044 204.874 52.2711 205.679 53.0451C206.462 53.8203 207.206 53.9168 208.537 54.0372C209.919 54.164 211.637 54.3184 213.403 55.7556C214.365 56.544 215.165 57.4706 215.75 58.5065C215.927 58.8199 216.072 59.1171 216.204 59.4104C216.503 60.1027 216.245 60.9263 215.607 61.3215L212.437 63.2738C212.09 63.493 211.64 63.5293 211.236 63.4245C210.832 63.3196 210.467 63.0202 210.266 62.6633C209.843 61.9146 209.313 61.2833 208.641 60.7443C207.599 59.8972 206.641 59.8071 205.422 59.7034C204.028 59.5728 202.304 59.4097 200.708 57.8654C199.384 56.5804 198.797 54.7295 198.391 53.0754C198.04 51.6424 197.651 50.3233 196.723 49.4346C196.144 48.8775 195.468 48.5133 194.5 48.2446C194.054 48.1061 193.67 47.7718 193.505 47.3369C193.326 46.8983 193.368 46.4036 193.606 45.9929L195.295 43.0859C195.628 42.5182 196.276 42.2211 196.928 42.3581C198.412 42.6677 200.142 43.126 201.685 44.5969ZM321.813 115.459C321.495 115.283 321.35 115.066 321.172 114.833C319.335 112.253 317.069 110.398 314.665 109.437C314.942 114.358 312.124 117.949 309.774 119.013C309.687 119.062 309.568 119.118 309.445 119.164C306.053 120.702 302.851 119.894 301.276 117.108C300.887 116.42 300.596 115.62 300.382 114.673C300.111 113.482 299.345 110.032 304.458 105.097C301.985 103.934 298.923 103.597 295.616 104.168C295.315 104.224 295.066 104.272 294.721 104.169C293.944 103.953 293.447 103.074 293.658 102.288L294.919 97.7731C295.135 96.9964 295.904 96.5274 296.682 96.6848C296.452 96.6428 296.309 96.6546 296.349 96.6436C302.784 95.5103 308.383 97.3078 311.824 101.566C317.142 101.098 322.248 103.75 326.018 109.039C326.085 109.116 326.129 109.194 326.178 109.281C326.429 109.725 326.454 110.297 326.187 110.781L323.915 114.868C323.477 115.598 322.545 115.861 321.813 115.459ZM308.523 111.679C308.512 110.847 308.44 110.049 308.339 109.383C307.727 109.682 307.013 110.086 306.331 110.586C305.474 111.163 305.111 112.838 305.648 113.787C305.781 114.022 305.96 114.196 306.185 114.31C306.627 114.543 307.145 114.526 307.553 114.272C308.191 113.877 308.534 112.959 308.523 111.679Z" fill="#ABD6A0"/>
</svg>
