<svg width="390" height="273" viewBox="0 0 390 273" fill="none" xmlns="http://www.w3.org/2000/svg">
<path d="M244.673 100.718H244.641C244.641 100.493 244.673 100.269 244.673 100.044C244.673 69.3624 219.807 44.4639 189.094 44.4639C185.142 44.4639 181.287 44.8815 177.592 45.6847C166.572 18.8907 140.26 0 109.483 0C86.3833 0 65.7898 10.6662 52.2964 27.308C43.3384 22.7524 33.4319 20.3749 23.3821 20.3686C-9.86944 20.3686 -37.1774 45.6847 -40.358 78.1009C-76.501 80.0285 -105.512 109.65 -105.994 146.435C-106.508 184.731 -75.8263 216.215 -37.5308 216.697C-34.543 216.729 -31.6516 216.536 -28.7601 216.183C-13.9496 247.411 17.8241 269 54.6738 269C76.9058 269 97.2744 261.129 113.209 248.053C125.386 257.081 140.421 262.478 156.742 262.478C190.218 262.478 218.393 240.021 227.164 209.34C232.69 211.171 238.569 212.199 244.706 212.199C275.483 212.199 300.446 187.237 300.446 156.459C300.414 125.681 275.483 100.718 244.673 100.718Z" fill="#F16F42" fill-opacity="0.19"/>
<path d="M442.579 172.907H442.56C442.56 172.773 442.579 172.639 442.579 172.506C442.579 154.256 427.789 139.447 409.52 139.447C407.17 139.447 404.877 139.695 402.679 140.173C396.125 124.236 380.475 113 362.168 113C348.429 113 336.18 119.344 328.154 129.243C322.826 126.533 316.933 125.119 310.956 125.115C291.178 125.115 274.935 140.173 273.044 159.454C251.546 160.601 234.29 178.219 234.004 200.099C233.698 222.877 251.947 241.604 274.725 241.89C276.502 241.91 278.222 241.795 279.942 241.585C288.751 260.159 307.65 273 329.568 273C342.792 273 354.907 268.318 364.385 260.541C371.627 265.911 380.57 269.121 390.278 269.121C410.189 269.121 426.948 255.764 432.165 237.515C435.451 238.604 438.948 239.215 442.598 239.215C460.905 239.215 475.752 224.368 475.752 206.061C475.733 187.755 460.905 172.907 442.579 172.907Z" fill="#F16F42" fill-opacity="0.52"/>
</svg>
