<svg width="227" height="252" viewBox="0 0 227 252" fill="none" xmlns="http://www.w3.org/2000/svg">
<path d="M227 148.581C227 200.727 184.813 243 132.774 243C80.7337 243 0 200.727 0 148.581C0 96.4343 16.489 58.4524 68.5289 58.4524C92.6869 58.4524 132.774 -22.0193 189.524 5.87712C225.893 22.0208 227 120.642 227 148.581Z" fill="#FFEAE2"/>
<path d="M192.789 145.275C192.774 145.317 192.758 145.359 192.743 145.401L192.789 145.276C192.789 145.276 192.789 145.275 192.789 145.275C200.675 123.729 208.616 113.118 220.259 98.6919C220.259 98.6919 211.936 114.963 206.861 123.839C201.907 132.503 192.85 145.19 192.789 145.275Z" fill="#344E91"/>
<path d="M192.639 146.1L185.517 126.121C185.339 125.62 185.501 125.061 185.918 124.729C196.425 116.364 205.405 106.25 218.791 97.094C219.943 96.3063 221.167 97.7116 220.284 98.7916C208.368 113.358 199.313 126.746 192.639 146.1Z" fill="#4A64AA"/>
<path d="M178.556 92.1058C175.524 15.8617 72.3286 16.0678 66.2584 92.1058C65.4816 111.641 62.6012 127.343 56.3918 141.081C50.1823 154.82 44.5483 174.381 44.0244 185.518C44.0242 267.292 202.38 267.949 200.79 185.518C200.61 176.168 197.38 155.788 192.143 141.081C186.011 123.858 179.269 110.026 178.556 92.1058Z" fill="#4A64AA"/>
<path d="M81.1267 79.8727C81.1267 67.169 87.4464 57.261 100.08 57.261C106.781 57.261 113.865 61.2606 120.793 76.7057C121.268 77.7639 122.85 77.7006 123.248 76.6113C128.838 61.3103 136.489 57.7923 143.644 57.261C156.278 57.261 163.163 67.169 163.163 79.8727C163.163 86.1761 162.199 96.6075 160.478 109.075C159.754 114.322 161.038 119.655 163.873 124.129C199.52 180.382 183.16 225.251 122.145 225.251C61.3895 225.251 43.0453 177.716 79.8623 124.454C83.0994 119.771 84.6396 114.055 83.8472 108.417C82.1048 96.019 81.1267 85.7818 81.1267 79.8727Z" fill="#D4E4FE"/>
<path fill-rule="evenodd" clip-rule="evenodd" d="M144.696 96.4244C149.752 96.4244 153.85 90.5183 153.85 83.2326C153.85 75.947 149.752 70.0408 144.696 70.0408C142.535 70.0408 140.548 71.1208 138.982 72.927C139.003 72.9267 139.025 72.9265 139.047 72.9265C141.438 72.9265 143.375 74.8645 143.375 77.2551C143.375 79.6457 141.438 81.5836 139.047 81.5836C137.754 81.5836 136.593 81.0165 135.8 80.1173C135.632 81.1162 135.543 82.1594 135.543 83.2326C135.543 90.5183 139.641 96.4244 144.696 96.4244Z" fill="black"/>
<path fill-rule="evenodd" clip-rule="evenodd" d="M135.8 80.117C136.284 77.2347 137.425 74.7222 138.982 72.927C139.004 72.9267 139.025 72.9265 139.047 72.9265C141.438 72.9265 143.376 74.8645 143.376 77.2551C143.376 79.6457 141.438 81.5837 139.047 81.5837C137.754 81.5837 136.593 81.0163 135.8 80.117Z" fill="white"/>
<path d="M133.357 107.213C133.357 107.213 129.373 93.5536 123.529 93.1362C117.686 92.7188 109.983 105.885 109.983 105.885C109.983 105.885 112.353 130.737 122.201 129.79C131.584 128.887 133.357 107.213 133.357 107.213Z" fill="#F16F42"/>
<path d="M122.201 129.78C132.011 129.089 133.357 107.204 133.357 107.204L128.55 107.588C127.396 107.681 126.353 108.311 125.735 109.29C124.56 111.149 122.027 111.568 120.317 110.187L117.806 108.159C117.029 107.531 116.112 107.101 115.133 106.906L109.983 105.876C109.983 105.876 111.743 130.517 122.201 129.78Z" fill="#FD916D"/>
<path d="M121.724 110.798C119.469 109.292 117.764 108.048 115.932 107.107C114.896 106.575 113.778 107.409 113.895 108.568C114.439 113.953 116.386 126.42 122.733 125.806C128.454 125.252 129.782 114.431 130.085 108.759C130.158 107.381 128.598 106.645 127.532 107.521L123.667 110.696C123.111 111.153 122.322 111.197 121.724 110.798Z" fill="#8A2B0A"/>
<path d="M125.389 120.494C125.389 123.428 124.857 125.806 122.201 125.806C119.545 125.806 119.014 123.428 119.014 120.494C119.014 117.56 120.441 115.182 122.201 115.182C123.962 115.182 125.389 117.56 125.389 120.494Z" fill="#FF8181"/>
<path d="M74.4514 246.136L67.7266 247.96C66.907 248.183 66.1906 247.447 66.5042 246.658C68.1763 242.449 73.4434 232.344 85.4552 232.404C99.1589 232.472 103.475 244.346 104.648 249.059C104.855 249.888 104.037 250.521 103.253 250.182L95.0276 246.616C93.7074 246.043 92.1844 246.201 91.0093 247.031L87.5809 249.453C86.2823 250.37 84.5719 250.459 83.1853 249.681L77.548 246.519C76.6059 245.99 75.494 245.853 74.4514 246.136Z" fill="#F16F42"/>
<path d="M148.73 246.687L142.035 248.621C141.219 248.856 140.491 248.133 140.792 247.339C142.395 243.103 147.497 232.914 159.508 232.778C173.211 232.623 177.72 244.425 178.97 249.118C179.19 249.944 178.383 250.591 177.593 250.264L169.311 246.832C167.981 246.281 166.461 246.464 165.3 247.313L161.911 249.79C160.628 250.729 158.919 250.845 157.52 250.09L151.832 247.02C150.881 246.507 149.767 246.387 148.73 246.687Z" fill="#F16F42"/>
<path fill-rule="evenodd" clip-rule="evenodd" d="M100.174 96.4244C105.229 96.4244 109.328 90.5183 109.328 83.2326C109.328 75.947 105.229 70.0408 100.174 70.0408C98.0122 70.0408 96.0254 71.1208 94.4593 72.927C94.4809 72.9267 94.5026 72.9265 94.5244 72.9265C96.915 72.9265 98.8529 74.8645 98.8529 77.2551C98.8529 79.6457 96.915 81.5836 94.5244 81.5836C93.2311 81.5836 92.0704 81.0165 91.2772 80.1174C91.1094 81.1162 91.0205 82.1595 91.0205 83.2326C91.0205 90.5183 95.1187 96.4244 100.174 96.4244Z" fill="black"/>
<path fill-rule="evenodd" clip-rule="evenodd" d="M91.2773 80.117C91.7616 77.2347 92.9027 74.7222 94.4593 72.927C94.4811 72.9267 94.503 72.9265 94.5249 72.9265C96.9155 72.9265 98.8535 74.8645 98.8535 77.2551C98.8535 79.6457 96.9155 81.5837 94.5249 81.5837C93.2315 81.5837 92.0705 81.0163 91.2773 80.117Z" fill="white"/>
<path d="M55.2103 145.687C55.2257 145.729 55.2411 145.771 55.2565 145.813L55.2106 145.688C55.2106 145.688 55.2105 145.688 55.2103 145.687C47.3246 124.141 39.3834 113.53 27.7404 99.104C27.7404 99.104 36.0637 115.375 41.1384 124.251C46.0923 132.915 55.1495 145.602 55.2103 145.687Z" fill="#344E91"/>
<path d="M55.3613 146.512L62.4826 126.533C62.6612 126.032 62.4987 125.473 62.0824 125.142C51.5747 116.777 42.5945 106.662 29.2088 97.5064C28.0571 96.7186 26.8328 98.124 27.7163 99.204C39.6322 113.771 48.6866 127.158 55.3613 146.512Z" fill="#4A64AA"/>
<path d="M169.677 158.672C168.977 158.774 168.476 158.609 167.741 158.478L164.77 157.72L162.14 159.295C161.707 159.597 161.041 159.933 160.341 160.035C159.874 160.103 159.64 160.137 159.139 159.972L159.301 169.245L165.622 163.555L173.306 167.201L170.576 158.302C170.377 158.57 169.91 158.638 169.677 158.672ZM174.299 142.979C173.998 142.546 173.895 141.846 174.061 141.345L175.052 138.34C175.383 137.338 174.745 136.239 173.51 135.943L170.306 135.219C169.805 135.053 169.27 134.655 168.968 134.222L167.358 131.358C166.988 130.458 166.22 130.094 165.52 130.196C165.286 130.23 164.82 130.298 164.62 130.566L161.79 132.409L161.09 132.511C160.857 132.545 160.623 132.58 160.356 132.38L157.151 131.656C156.884 131.457 156.417 131.525 156.183 131.559C155.483 131.661 154.851 132.23 154.487 132.999L153.797 136.437C153.865 136.904 153.466 137.439 153.033 137.74L149.936 139.384C149.036 139.754 148.74 140.989 149.377 142.088L151.221 144.918C151.522 145.351 151.624 146.051 151.459 146.552L150.468 149.557C150.137 150.559 150.774 151.658 152.009 151.954L155.214 152.678C155.715 152.843 156.25 153.242 156.551 153.675L158.161 156.539C158.531 157.438 159.3 157.803 160 157.701C160.233 157.667 160.467 157.633 160.666 157.365L163.496 155.522C163.729 155.488 163.929 155.22 164.162 155.186C164.395 155.152 164.629 155.118 164.896 155.317L168.135 156.275C168.402 156.474 168.636 156.44 168.869 156.406C169.57 156.304 170.202 155.735 170.566 154.966L171.29 151.762C171.456 151.261 171.854 150.726 172.287 150.424L175.151 148.814C176.016 148.211 176.546 146.942 175.943 146.076L174.299 142.979ZM164.123 153.285C158.988 154.034 154.173 150.446 153.423 145.311C152.674 140.176 156.262 135.362 161.397 134.612C166.532 133.862 171.347 137.45 172.096 142.585C172.846 147.72 169.258 152.535 164.123 153.285Z" fill="#F16F42"/>
<path d="M169.762 142.927C170.033 144.784 169.555 146.672 168.434 148.177C167.312 149.682 165.639 150.68 163.782 150.951C161.924 151.222 160.036 150.744 158.531 149.623C157.026 148.501 156.028 146.828 155.757 144.971C155.486 143.114 155.964 141.225 157.085 139.72C158.207 138.215 159.88 137.218 161.737 136.947C163.594 136.675 165.483 137.153 166.988 138.275C168.493 139.396 169.491 141.069 169.762 142.927Z" fill="#F16F42"/>
<path d="M155.432 144.531C155.83 149.781 160.754 151.604 163.904 151.27C167.575 150.881 171.32 147.789 170.613 142.804C169.949 138.128 165.828 136.272 162.372 136.559C158.356 136.895 155.083 139.945 155.432 144.531Z" fill="#F16F42"/>
<path d="M163.677 150.49C163.622 150.494 163.566 150.498 163.511 150.5C161.863 150.57 160.187 150.001 158.912 148.941C157.547 147.806 156.724 146.193 156.597 144.403C156.284 140.03 159.952 137.712 162.544 137.515L162.566 137.514C166.08 137.262 169.171 139.773 169.533 143.468C169.693 145.113 169.292 146.792 168.067 148.195C166.923 149.498 165.191 150.374 163.677 150.49ZM162.595 138.243C160.27 138.42 156.976 140.583 157.254 144.353C157.461 147.171 159.864 149.902 163.509 149.749C164.897 149.687 166.42 149.056 167.485 147.838C168.592 146.57 169.012 144.995 168.876 143.529C168.582 140.349 165.786 138.014 162.625 138.241C162.619 138.237 162.601 138.243 162.595 138.243Z" fill="#AB4213"/>
<path d="M161.228 137.342C161.061 137.146 159.516 137.322 157.958 138.884C156.41 140.437 156.282 142.033 156.586 142.094C156.933 142.162 157.231 140.606 158.565 139.215C159.79 137.943 161.56 137.734 161.228 137.342ZM168.323 142.571C167.8 142.685 168.468 144.226 167.378 146.089C166.432 147.706 165.269 148.354 165.435 148.681C165.658 149.118 167.503 147.847 168.258 145.948C168.94 144.227 168.711 142.484 168.323 142.571Z" fill="#FEFFFA"/>
</svg>
