<svg width="171" height="316" viewBox="0 0 171 316" fill="none" xmlns="http://www.w3.org/2000/svg">
<path d="M144.594 214.812C153.069 216.544 159.883 226.619 170.174 250.359C170.345 250.753 169.842 251.095 169.54 250.791C161.266 242.445 155.458 237.771 146.679 227.15C146.639 227.102 146.611 227.044 146.598 226.982L144.156 215.262C144.101 214.996 144.329 214.758 144.594 214.812Z" fill="#344E91"/>
<path d="M170.488 250.199C169.352 232.667 160.42 211.706 141.459 188.307C140.963 187.695 139.987 188.133 140.112 188.911L144.213 214.431C144.265 214.754 144.516 215.007 144.834 215.081C153.751 217.13 159.666 228.332 169.117 250.489C169.448 251.266 170.543 251.041 170.488 250.199Z" fill="#4A64AA"/>
<path d="M26.4055 214.812C17.9313 216.544 11.1172 226.619 0.825846 250.359C0.655319 250.753 1.15825 251.095 1.46011 250.791C9.73387 242.445 15.5425 237.771 24.3206 227.15C24.3606 227.102 24.3891 227.044 24.4019 226.982L26.8437 215.262C26.899 214.996 26.6711 214.758 26.4055 214.812Z" fill="#344E91"/>
<path d="M0.512045 250.199C1.64843 232.667 10.5807 211.706 29.5419 188.307C30.0375 187.695 31.0136 188.133 30.8887 188.911L26.7871 214.431C26.7352 214.754 26.4849 215.007 26.1665 215.081C17.2499 217.13 11.3346 228.332 1.8833 250.489C1.55225 251.266 0.457468 251.041 0.512045 250.199Z" fill="#4A64AA"/>
<path d="M137.859 166.592C135.014 95.0394 38.1687 95.2328 32.4721 166.592C31.743 184.925 29.0399 199.661 23.2125 212.554C17.3851 225.447 12.0978 243.805 11.6062 254.256C11.606 330.998 160.217 331.615 158.725 254.256C158.556 245.481 155.525 226.355 150.611 212.554C144.856 196.391 138.528 183.409 137.859 166.592Z" fill="#4A64AA"/>
<path d="M46.4251 155.112C46.4251 143.19 52.3559 133.891 64.2122 133.891C70.5004 133.891 77.1491 137.645 83.6506 152.14C84.096 153.133 85.5809 153.073 85.9543 152.051C91.2003 137.692 98.381 134.39 105.096 133.891C116.952 133.891 123.414 143.19 123.414 155.112C123.414 161.027 122.508 170.817 120.894 182.517C120.214 187.441 121.419 192.446 124.08 196.645C157.533 249.437 142.18 291.544 84.9195 291.544C27.9024 291.544 10.687 246.934 45.2385 196.95C48.2764 192.555 49.7218 187.19 48.9782 181.9C47.343 170.264 46.4251 160.657 46.4251 155.112Z" fill="#D4E4FE"/>
<path fill-rule="evenodd" clip-rule="evenodd" d="M106.083 170.645C110.827 170.645 114.673 165.102 114.673 158.265C114.673 151.427 110.827 145.885 106.083 145.885C104.054 145.885 102.19 146.898 100.72 148.593C100.741 148.593 100.761 148.593 100.781 148.593C103.025 148.593 104.844 150.411 104.844 152.655C104.844 154.898 103.025 156.717 100.781 156.717C99.5677 156.717 98.4782 156.185 97.7339 155.341C97.5764 156.278 97.4929 157.258 97.4929 158.265C97.4929 165.102 101.339 170.645 106.083 170.645Z" fill="black"/>
<path fill-rule="evenodd" clip-rule="evenodd" d="M97.7339 155.341C98.1884 152.636 99.2593 150.278 100.72 148.593C100.741 148.593 100.761 148.593 100.781 148.593C103.025 148.593 104.844 150.411 104.844 152.655C104.844 154.898 103.025 156.717 100.781 156.717C99.5677 156.717 98.4783 156.185 97.7339 155.341Z" fill="white"/>
<path d="M95.4422 180.77C95.4422 180.77 91.7032 167.951 86.2195 167.559C80.7357 167.167 73.5071 179.523 73.5071 179.523C73.5071 179.523 75.7309 202.846 84.9732 201.957C93.7784 201.11 95.4422 180.77 95.4422 180.77Z" fill="#F16F42"/>
<path d="M84.9732 201.948C94.1795 201.3 95.4422 180.761 95.4422 180.761L90.9309 181.122C89.848 181.208 88.8692 181.8 88.2891 182.718C87.187 184.463 84.8099 184.857 83.2044 183.56L80.8483 181.657C80.1194 181.068 79.2588 180.665 78.34 180.481L73.5071 179.514C73.5071 179.514 75.1586 202.639 84.9732 201.948Z" fill="#FD916D"/>
<path d="M84.5249 184.133C82.4088 182.72 80.8081 181.553 79.0893 180.67C78.1171 180.171 77.0674 180.953 77.1773 182.041C77.6876 187.095 79.5153 198.795 85.4715 198.218C90.8403 197.698 92.0868 187.543 92.3709 182.22C92.4399 180.927 90.9761 180.236 89.9757 181.058L86.3479 184.038C85.8262 184.467 85.0864 184.508 84.5249 184.133Z" fill="#8A2B0A"/>
<path d="M87.9642 193.233C87.9642 195.986 87.4657 198.218 84.9731 198.218C82.4805 198.218 81.9819 195.986 81.9819 193.233C81.9819 190.48 83.3211 188.248 84.9731 188.248C86.6251 188.248 87.9642 190.48 87.9642 193.233Z" fill="#FF8181"/>
<path d="M40.1607 309.267L33.8496 310.979C33.0804 311.188 32.4082 310.498 32.7024 309.757C34.2717 305.807 39.2147 296.324 50.4873 296.38C63.3478 296.444 67.3978 307.587 68.4992 312.01C68.693 312.788 67.9257 313.383 67.19 313.064L59.4707 309.718C58.2318 309.18 56.8025 309.328 55.6996 310.107L52.4822 312.38C51.2636 313.241 49.6584 313.325 48.3571 312.595L43.0666 309.627C42.1825 309.131 41.139 309.001 40.1607 309.267Z" fill="#F16F42"/>
<path d="M109.799 310.555L103.488 312.267C102.719 312.476 102.046 311.786 102.341 311.045C103.91 307.095 108.853 297.612 120.125 297.668C132.986 297.732 137.036 308.875 138.137 313.298C138.331 314.076 137.564 314.671 136.828 314.352L129.109 311.006C127.87 310.468 126.441 310.616 125.338 311.395L122.12 313.668C120.902 314.529 119.297 314.613 117.995 313.883L112.705 310.915C111.821 310.419 110.777 310.289 109.799 310.555Z" fill="#F16F42"/>
<path fill-rule="evenodd" clip-rule="evenodd" d="M64.3007 170.645C69.045 170.645 72.891 165.102 72.891 158.265C72.891 151.427 69.045 145.885 64.3007 145.885C62.2719 145.885 60.4074 146.898 58.9376 148.593C58.958 148.593 58.9784 148.593 58.9989 148.593C61.2424 148.593 63.0611 150.411 63.0611 152.655C63.0611 154.898 61.2424 156.717 58.9989 156.717C57.7852 156.717 56.6958 156.185 55.9514 155.341C55.7939 156.278 55.7104 157.258 55.7104 158.265C55.7104 165.102 59.5564 170.645 64.3007 170.645Z" fill="black"/>
<path fill-rule="evenodd" clip-rule="evenodd" d="M55.9514 155.341C56.4058 152.636 57.4767 150.278 58.9376 148.593C58.958 148.593 58.9784 148.593 58.9989 148.593C61.2424 148.593 63.0611 150.411 63.0611 152.655C63.0611 154.898 61.2424 156.717 58.9989 156.717C57.7851 156.717 56.6957 156.185 55.9514 155.341Z" fill="white"/>
<path d="M117.128 32.1348C117.128 13.0839 100.799 -2.00832 81.253 0.218408C66.4082 1.95031 54.5323 13.8262 53.0478 28.671C51.8107 40.052 56.5116 50.196 64.4288 56.6288C67.8926 59.5977 70.1194 63.8038 70.1194 68.5046V69.2469H99.809V68.9995C99.809 64.546 101.788 60.0926 105.252 57.1236C112.427 51.1857 117.128 42.2788 117.128 32.1348Z" fill="#FBC02D"/>
<path d="M101.294 27.6815L93.8715 22.7332C93.1293 22.2384 91.8922 22.2384 91.15 22.7332L84.9646 26.6918L79.0267 22.7332C78.2845 22.2384 77.0474 22.2384 76.3051 22.7332L68.8827 27.6815C68.3879 28.1763 67.8931 28.6711 67.8931 29.4134C67.8931 30.1556 67.8931 30.8978 68.3879 31.3927L77.7896 43.0211V69.247H82.7379V42.0315C82.7379 41.5366 82.4905 41.0418 82.2431 40.547L74.0784 30.403L77.7896 27.9289L83.7276 31.8875C84.4698 32.3823 85.7069 32.3823 86.4491 31.8875L92.387 27.9289L96.0982 30.403L87.9336 40.547C87.6862 41.0418 87.4388 41.5366 87.4388 42.0315V69.247H92.387V43.0211L101.789 31.3927C102.284 30.8978 102.531 30.1556 102.284 29.4134C102.036 28.6711 101.789 27.9289 101.294 27.6815Z" fill="#FFF59D"/>
<path d="M84.9644 93.9883C89.0637 93.9883 92.3868 90.6651 92.3868 86.5658C92.3868 82.4666 89.0637 79.1434 84.9644 79.1434C80.8651 79.1434 77.542 82.4666 77.542 86.5658C77.542 90.6651 80.8651 93.9883 84.9644 93.9883Z" fill="#5C6BC0"/>
<path d="M89.9127 89.04H80.0162C74.5731 89.04 70.1196 84.5865 70.1196 79.1434V66.7727H99.8093V79.1434C99.8093 84.5865 95.3558 89.04 89.9127 89.04Z" fill="#9FA8DA"/>
<path d="M99.8093 79.1435L71.1093 83.1021C71.8515 84.834 73.336 86.5659 75.0679 87.5556L98.3248 84.3392C99.3145 82.8547 99.8093 81.1228 99.8093 79.1435ZM70.1196 73.453V78.4013L99.8093 74.1952V69.2469L70.1196 73.453Z" fill="#344E91"/>
</svg>
