<svg width="582" height="335" viewBox="0 0 582 335" fill="none" xmlns="http://www.w3.org/2000/svg">
<path d="M350.673 100.718H350.641C350.641 100.493 350.673 100.269 350.673 100.044C350.673 69.3624 325.807 44.4639 295.094 44.4639C291.142 44.4639 287.287 44.8815 283.592 45.6847C272.572 18.8907 246.26 0 215.483 0C192.383 0 171.79 10.6662 158.296 27.308C149.338 22.7524 139.432 20.3749 129.382 20.3686C96.1306 20.3686 68.8226 45.6847 65.642 78.1009C29.499 80.0285 0.488272 109.65 0.00636587 146.435C-0.507667 184.731 30.1737 216.215 68.4692 216.697C71.457 216.729 74.3484 216.536 77.2399 216.183C92.0504 247.411 123.824 269 160.674 269C182.906 269 203.274 261.129 219.209 248.053C231.386 257.081 246.421 262.478 262.742 262.478C296.218 262.478 324.393 240.021 333.164 209.34C338.69 211.171 344.569 212.199 350.706 212.199C381.483 212.199 406.446 187.237 406.446 156.459C406.414 125.681 381.483 100.718 350.673 100.718Z" fill="#F16F42" fill-opacity="0.19"/>
<path d="M548.579 172.907H548.56C548.56 172.773 548.579 172.639 548.579 172.506C548.579 154.256 533.789 139.447 515.52 139.447C513.17 139.447 510.877 139.695 508.679 140.173C502.125 124.236 486.475 113 468.168 113C454.429 113 442.18 119.344 434.154 129.243C428.826 126.533 422.933 125.119 416.956 125.115C397.178 125.115 380.935 140.173 379.044 159.454C357.546 160.601 340.29 178.219 340.004 200.099C339.698 222.877 357.947 241.604 380.725 241.89C382.502 241.91 384.222 241.795 385.942 241.585C394.751 260.159 413.65 273 435.568 273C448.792 273 460.907 268.318 470.385 260.541C477.627 265.911 486.57 269.121 496.278 269.121C516.189 269.121 532.948 255.764 538.165 237.515C541.451 238.604 544.948 239.215 548.598 239.215C566.905 239.215 581.752 224.368 581.752 206.061C581.733 187.755 566.905 172.907 548.579 172.907Z" fill="#F16F42" fill-opacity="0.52"/>
<path d="M359.594 233.812C368.069 235.544 374.883 245.619 385.174 269.359C385.345 269.753 384.842 270.095 384.54 269.791C376.266 261.445 370.458 256.771 361.679 246.15C361.639 246.102 361.611 246.044 361.598 245.982L359.156 234.262C359.101 233.996 359.329 233.758 359.594 233.812Z" fill="#344E91"/>
<path d="M385.488 269.199C384.352 251.667 375.42 230.706 356.459 207.307C355.963 206.695 354.987 207.134 355.112 207.911L359.213 233.432C359.265 233.754 359.516 234.007 359.834 234.081C368.751 236.13 374.666 247.332 384.117 269.49C384.448 270.266 385.543 270.041 385.488 269.199Z" fill="#4A64AA"/>
<path d="M241.406 233.812C232.931 235.544 226.117 245.619 215.826 269.359C215.655 269.753 216.158 270.095 216.46 269.791C224.734 261.445 230.542 256.771 239.321 246.15C239.361 246.102 239.389 246.044 239.402 245.982L241.844 234.262C241.899 233.996 241.671 233.758 241.406 233.812Z" fill="#344E91"/>
<path d="M215.512 269.199C216.648 251.667 225.581 230.706 244.542 207.307C245.038 206.695 246.014 207.134 245.889 207.911L241.787 233.432C241.735 233.754 241.485 234.007 241.166 234.081C232.25 236.13 226.335 247.332 216.883 269.49C216.552 270.266 215.457 270.041 215.512 269.199Z" fill="#4A64AA"/>
<path d="M352.859 185.592C350.014 114.039 253.169 114.233 247.472 185.592C246.743 203.925 244.04 218.661 238.213 231.554C232.385 244.447 227.098 262.805 226.606 273.256C226.606 349.998 375.217 350.615 373.725 273.256C373.556 264.481 370.525 245.355 365.611 231.554C359.856 215.391 353.528 202.409 352.859 185.592Z" fill="#4A64AA"/>
<path d="M261.425 174.112C261.425 162.19 267.356 152.891 279.212 152.891C285.5 152.891 292.149 156.645 298.651 171.14C299.096 172.133 300.581 172.073 300.954 171.051C306.2 156.692 313.381 153.39 320.096 152.891C331.952 152.891 338.414 162.19 338.414 174.112C338.414 180.027 337.508 189.817 335.894 201.517C335.214 206.441 336.419 211.446 339.08 215.645C372.533 268.437 357.18 310.544 299.919 310.544C242.902 310.544 225.687 265.934 260.239 215.95C263.276 211.555 264.722 206.19 263.978 200.9C262.343 189.264 261.425 179.657 261.425 174.112Z" fill="#D4E4FE"/>
<path fill-rule="evenodd" clip-rule="evenodd" d="M321.083 189.645C325.827 189.645 329.673 184.102 329.673 177.265C329.673 170.427 325.827 164.885 321.083 164.885C319.054 164.885 317.19 165.898 315.72 167.593C315.741 167.593 315.761 167.593 315.781 167.593C318.025 167.593 319.844 169.411 319.844 171.655C319.844 173.898 318.025 175.717 315.781 175.717C314.568 175.717 313.478 175.185 312.734 174.341C312.576 175.278 312.493 176.257 312.493 177.265C312.493 184.102 316.339 189.645 321.083 189.645Z" fill="black"/>
<path fill-rule="evenodd" clip-rule="evenodd" d="M312.734 174.341C313.189 171.636 314.259 169.278 315.72 167.593C315.741 167.593 315.761 167.593 315.782 167.593C318.025 167.593 319.844 169.411 319.844 171.655C319.844 173.898 318.025 175.717 315.782 175.717C314.568 175.717 313.478 175.185 312.734 174.341Z" fill="white"/>
<path d="M310.442 199.77C310.442 199.77 306.703 186.951 301.219 186.559C295.736 186.167 288.507 198.523 288.507 198.523C288.507 198.523 290.731 221.846 299.973 220.957C308.778 220.11 310.442 199.77 310.442 199.77Z" fill="#F16F42"/>
<path d="M299.973 220.948C309.179 220.3 310.442 199.761 310.442 199.761L305.931 200.122C304.848 200.208 303.869 200.8 303.289 201.718C302.187 203.463 299.81 203.857 298.204 202.56L295.848 200.657C295.119 200.068 294.259 199.665 293.34 199.481L288.507 198.514C288.507 198.514 290.159 221.639 299.973 220.948Z" fill="#FD916D"/>
<path d="M299.525 203.133C297.409 201.72 295.808 200.553 294.089 199.67C293.117 199.171 292.067 199.953 292.177 201.041C292.688 206.095 294.515 217.795 300.472 217.218C305.84 216.698 307.087 206.543 307.371 201.22C307.44 199.927 305.976 199.236 304.976 200.058L301.348 203.038C300.826 203.467 300.086 203.508 299.525 203.133Z" fill="#8A2B0A"/>
<path d="M302.964 212.233C302.964 214.986 302.466 217.218 299.973 217.218C297.48 217.218 296.982 214.986 296.982 212.233C296.982 209.48 298.321 207.248 299.973 207.248C301.625 207.248 302.964 209.48 302.964 212.233Z" fill="#FF8181"/>
<path d="M255.161 328.267L248.85 329.979C248.08 330.188 247.408 329.498 247.702 328.757C249.272 324.807 254.215 315.324 265.487 315.38C278.348 315.444 282.398 326.587 283.499 331.01C283.693 331.788 282.926 332.383 282.19 332.064L274.471 328.718C273.232 328.18 271.802 328.328 270.7 329.107L267.482 331.38C266.264 332.241 264.658 332.325 263.357 331.595L258.067 328.627C257.183 328.131 256.139 328.001 255.161 328.267Z" fill="#F16F42"/>
<path d="M324.927 329.857L318.669 331.755C317.906 331.986 317.214 331.316 317.486 330.567C318.938 326.573 323.6 316.948 334.869 316.672C347.726 316.357 352.102 327.376 353.334 331.764C353.55 332.537 352.801 333.153 352.056 332.856L344.241 329.739C342.987 329.239 341.563 329.428 340.484 330.24L337.334 332.606C336.142 333.503 334.54 333.633 333.217 332.942L327.842 330.131C326.943 329.662 325.897 329.563 324.927 329.857Z" fill="#F16F42"/>
<path fill-rule="evenodd" clip-rule="evenodd" d="M279.301 189.645C284.045 189.645 287.891 184.102 287.891 177.265C287.891 170.427 284.045 164.885 279.301 164.885C277.272 164.885 275.407 165.898 273.938 167.593C273.958 167.593 273.978 167.593 273.999 167.593C276.242 167.593 278.061 169.411 278.061 171.655C278.061 173.898 276.242 175.717 273.999 175.717C272.785 175.717 271.696 175.185 270.951 174.341C270.794 175.278 270.71 176.257 270.71 177.265C270.71 184.102 274.556 189.645 279.301 189.645Z" fill="black"/>
<path fill-rule="evenodd" clip-rule="evenodd" d="M270.951 174.341C271.406 171.636 272.476 169.278 273.937 167.593C273.958 167.593 273.978 167.593 273.999 167.593C276.242 167.593 278.061 169.411 278.061 171.655C278.061 173.898 276.242 175.717 273.999 175.717C272.785 175.717 271.696 175.185 270.951 174.341Z" fill="white"/>
<path d="M332.128 51.1348C332.128 32.0839 315.799 16.9917 296.253 19.2184C281.408 20.9503 269.532 32.8262 268.048 47.671C266.811 59.052 271.512 69.196 279.429 75.6288C282.893 78.5977 285.119 82.8038 285.119 87.5046V88.2469H314.809V87.9995C314.809 83.546 316.788 79.0926 320.252 76.1236C327.427 70.1857 332.128 61.2788 332.128 51.1348Z" fill="#FBC02D"/>
<path d="M316.294 46.6815L308.872 41.7332C308.129 41.2384 306.892 41.2384 306.15 41.7332L299.965 45.6918L294.027 41.7332C293.284 41.2384 292.047 41.2384 291.305 41.7332L283.883 46.6815C283.388 47.1763 282.893 47.6711 282.893 48.4134C282.893 49.1556 282.893 49.8978 283.388 50.3927L292.79 62.0211V88.247H297.738V61.0315C297.738 60.5366 297.49 60.0418 297.243 59.547L289.078 49.403L292.79 46.9289L298.728 50.8875C299.47 51.3823 300.707 51.3823 301.449 50.8875L307.387 46.9289L311.098 49.403L302.934 59.547C302.686 60.0418 302.439 60.5366 302.439 61.0315V88.247H307.387V62.0211L316.789 50.3927C317.284 49.8978 317.531 49.1556 317.284 48.4134C317.036 47.6711 316.789 46.9289 316.294 46.6815Z" fill="#FFF59D"/>
<path d="M299.964 112.988C304.064 112.988 307.387 109.665 307.387 105.566C307.387 101.467 304.064 98.1436 299.964 98.1436C295.865 98.1436 292.542 101.467 292.542 105.566C292.542 109.665 295.865 112.988 299.964 112.988Z" fill="#5C6BC0"/>
<path d="M304.913 108.04H295.016C289.573 108.04 285.12 103.587 285.12 98.1434V85.7727H314.809V98.1434C314.809 103.587 310.356 108.04 304.913 108.04Z" fill="#9FA8DA"/>
<path d="M314.809 98.1434L286.109 102.102C286.852 103.834 288.336 105.566 290.068 106.555L313.325 103.339C314.314 101.855 314.809 100.123 314.809 98.1434ZM285.12 92.4529V97.4011L314.809 93.1951V88.2468L285.12 92.4529Z" fill="#344E91"/>
</svg>
