<svg width="308" height="330" viewBox="0 0 308 330" fill="none" xmlns="http://www.w3.org/2000/svg">
<path d="M308 201.676C308 272.457 250.76 329.836 180.151 329.836C109.542 329.836 0 272.457 0 201.676C0 130.895 22.3727 79.3403 92.9819 79.3403C125.76 79.3403 180.151 -29.8878 257.151 7.97731C306.498 29.89 308 163.753 308 201.676Z" fill="#FFEAE2"/>
<circle cx="158.859" cy="184.667" r="88.2579" fill="#4A64AA"/>
<path d="M84.0925 164.533C87.4064 145.455 100.419 127.719 120.987 127.719C132.419 127.719 144.537 134.87 156.328 163.12C156.525 163.591 157.218 163.562 157.376 163.077C166.568 134.893 179.686 128.627 191.913 127.719C212.481 127.719 231.949 137.952 234.097 164.533C238.057 213.528 227.05 262.103 156.911 262.103C84.0925 262.103 79.0618 193.493 84.0925 164.533Z" fill="#D4E4FE"/>
<path d="M84.0925 164.533C87.4064 145.455 100.419 127.719 120.987 127.719C132.419 127.719 144.537 134.87 156.328 163.12C156.525 163.591 157.218 163.562 157.376 163.077C166.568 134.893 179.686 128.627 191.913 127.719C212.481 127.719 231.949 137.952 234.097 164.533C238.057 213.528 227.05 262.103 156.911 262.103C84.0925 262.103 79.0618 193.493 84.0925 164.533Z" fill="#D4E4FE"/>
<path fill-rule="evenodd" clip-rule="evenodd" d="M194.903 201.111C203.133 201.111 209.806 191.495 209.806 179.634C209.806 167.772 203.133 158.157 194.903 158.157C191.383 158.157 188.149 159.915 185.599 162.856C185.635 162.855 185.671 162.855 185.708 162.855C189.6 162.855 192.755 166.01 192.755 169.902C192.755 173.794 189.6 176.949 185.708 176.949C183.601 176.949 181.71 176.025 180.419 174.56C180.145 176.187 180 177.886 180 179.634C180 191.495 186.673 201.111 194.903 201.111Z" fill="black"/>
<path fill-rule="evenodd" clip-rule="evenodd" d="M180.419 174.56C181.208 169.868 183.065 165.778 185.599 162.856C185.635 162.855 185.672 162.855 185.708 162.855C189.6 162.855 192.755 166.01 192.755 169.902C192.755 173.794 189.6 176.95 185.708 176.95C183.601 176.95 181.71 176.025 180.419 174.56Z" fill="white"/>
<path d="M177.251 213.344C177.251 213.344 170.846 191.384 161.452 190.713C152.057 190.042 139.674 211.209 139.674 211.209C139.674 211.209 143.484 251.163 159.317 249.639C174.401 248.188 177.251 213.344 177.251 213.344Z" fill="#F16F42"/>
<path d="M159.317 249.624C175.088 248.513 177.251 213.329 177.251 213.329L167.611 214.1C166.959 214.152 166.37 214.508 166.021 215.06L162.697 220.324C162.034 221.374 160.604 221.611 159.638 220.831L151.011 213.863C150.576 213.512 150.063 213.271 149.516 213.162L139.674 211.194C139.674 211.194 142.503 250.808 159.317 249.624Z" fill="#FD916D"/>
<path d="M159.605 219.806C154.471 216.43 151.135 213.811 146.925 212.112C146.321 211.868 145.691 212.336 145.739 212.986C146.196 219.156 148.763 244.339 160.171 243.234C170.806 242.205 171.998 219.101 172.118 212.252C172.131 211.48 171.248 211.077 170.651 211.567L160.693 219.747C160.382 220.002 159.941 220.027 159.605 219.806Z" fill="#8A2B0A"/>
<path d="M164.44 234.694C164.44 239.411 163.586 243.235 159.315 243.235C155.045 243.235 154.191 239.411 154.191 234.694C154.191 229.978 156.486 226.154 159.315 226.154C162.145 226.154 164.44 229.978 164.44 234.694Z" fill="#FF8181"/>
<path fill-rule="evenodd" clip-rule="evenodd" d="M122.42 201.111C130.651 201.111 137.323 191.495 137.323 179.634C137.323 167.772 130.651 158.157 122.42 158.157C118.9 158.157 115.666 159.915 113.116 162.856C113.151 162.855 113.186 162.855 113.221 162.855C117.113 162.855 120.269 166.01 120.269 169.902C120.269 173.794 117.113 176.949 113.221 176.949C111.116 176.949 109.227 176.026 107.935 174.563C107.662 176.189 107.518 177.887 107.518 179.634C107.518 191.495 114.19 201.111 122.42 201.111Z" fill="black"/>
<path fill-rule="evenodd" clip-rule="evenodd" d="M107.935 174.562C108.723 169.869 110.581 165.778 113.116 162.855C113.151 162.855 113.186 162.855 113.221 162.855C117.113 162.855 120.268 166.01 120.268 169.902C120.268 173.794 117.113 176.949 113.221 176.949C111.116 176.949 109.226 176.026 107.935 174.562Z" fill="white"/>
<path d="M62.5155 101.426C62.3054 100.776 62.8784 100.142 63.5469 100.285L113.694 111.036C114.363 111.18 114.625 111.993 114.167 112.5L79.7825 150.553C79.3242 151.061 78.4885 150.881 78.2784 150.231L62.5155 101.426Z" fill="#ABD6A0"/>
<path fill-rule="evenodd" clip-rule="evenodd" d="M79.3004 103.662L73.9603 102.517L65.467 110.564L67.0013 115.314L79.3004 103.662ZM68.3639 119.533L70.4817 126.09L92.0514 106.396L84.0432 104.679L68.3639 119.533ZM74.3237 137.986L71.8327 130.273L96.8557 107.426L104.736 109.115L74.3237 137.986ZM75.6871 142.207L78.2787 150.231C78.4888 150.881 79.3245 151.061 79.7828 150.553L114.167 112.5C114.626 111.993 114.363 111.179 113.694 111.036L109.475 110.132L75.6871 142.207ZM63.5471 100.285L69.2174 101.501L64.1043 106.345L62.5158 101.426C62.3057 100.776 62.8786 100.142 63.5471 100.285Z" fill="#BF1A59"/>
<path d="M197.519 87.6384H192.662C191.741 87.6384 190.984 88.384 190.984 89.3159V94.1728C190.984 95.0937 191.741 95.8503 192.662 95.8503H197.519C198.44 95.8503 199.196 95.0937 199.196 94.1728V89.3159C199.196 88.384 198.451 87.6384 197.519 87.6384ZM146.527 100.214H141.352C140.431 100.214 139.674 100.97 139.674 101.891V107.055C139.674 107.976 140.431 108.733 141.352 108.733H146.527C147.459 108.733 148.204 107.976 148.204 107.055V101.891C148.204 100.959 147.459 100.214 146.527 100.214Z" fill="#ED6C30"/>
<path d="M91.1909 244.683V239.519C91.1909 238.587 90.4344 237.841 89.5134 237.841H84.3386C83.4176 237.841 82.6611 238.587 82.6611 239.519V244.683C82.6611 245.615 83.4067 246.36 84.3386 246.36H89.5134C90.4454 246.36 91.1909 245.604 91.1909 244.683Z" fill="#ED6C30"/>
<path d="M224.028 241.623C223.381 240.966 222.318 240.966 221.66 241.623L218.009 245.285C217.68 245.603 217.516 246.02 217.516 246.469C217.516 246.919 217.691 247.347 218.009 247.654L221.66 251.304C221.815 251.461 222 251.584 222.203 251.669C222.406 251.753 222.624 251.797 222.844 251.797C223.064 251.797 223.282 251.753 223.485 251.669C223.688 251.584 223.873 251.461 224.028 251.304L227.679 247.654C228.337 246.996 228.337 245.932 227.679 245.285L224.028 241.623Z" fill="#40C0E7"/>
<path d="M230.431 125.408L226.78 129.059C226.123 129.717 226.123 130.78 226.78 131.427L230.431 135.089C230.76 135.407 231.188 135.582 231.615 135.582C232.054 135.582 232.482 135.418 232.8 135.089L236.461 131.427C237.119 130.769 237.119 129.717 236.461 129.059L232.8 125.408C232.142 124.75 231.078 124.75 230.431 125.408Z" fill="#40C0E7"/>
<path d="M57.2039 174.745L53.5529 178.396C52.8951 179.054 52.8951 180.117 53.5529 180.764L57.2039 184.426C57.5328 184.744 57.9603 184.919 58.3879 184.919C58.8265 184.919 59.2541 184.755 59.572 184.426L63.2339 180.764C63.8917 180.106 63.8917 179.054 63.2339 178.396L59.572 174.745C58.9142 174.087 57.8507 174.087 57.2039 174.745Z" fill="#40C0E7"/>
<path d="M158.072 69.4934L154.421 73.1443C153.763 73.8021 153.763 74.8656 154.421 75.5124L158.072 79.1743C158.4 79.4923 158.828 79.6677 159.256 79.6677C159.694 79.6677 160.122 79.5032 160.44 79.1743L164.102 75.5124C164.759 74.8546 164.759 73.8021 164.102 73.1443L160.44 69.4934C159.782 68.8355 158.718 68.8355 158.072 69.4934Z" fill="#40C0E7"/>
<path d="M288.961 144.47C288.852 143.933 288.479 143.495 287.997 143.286L283.885 141.499C283.304 141.247 282.635 141.346 282.153 141.729C281.659 142.135 281.44 142.771 281.572 143.385C281.572 143.407 282.087 146.093 280.585 148.341C279.5 149.952 277.592 151.005 274.906 151.476C267.758 152.737 266.957 157.375 266.387 160.752C265.839 163.953 265.455 165.389 262.21 165.696C258.603 166.036 255.95 167.385 254.316 169.709C251.696 173.415 252.847 178.162 252.891 178.359C253.011 178.864 253.373 179.28 253.856 179.489L257.967 181.276C258.186 181.374 258.416 181.418 258.636 181.418C258.89 181.419 259.141 181.361 259.37 181.251C259.598 181.14 259.799 180.979 259.956 180.779C260.114 180.58 260.224 180.347 260.278 180.099C260.332 179.85 260.329 179.593 260.269 179.346C260.269 179.313 259.458 175.86 261.19 173.426C262.243 171.956 264.074 171.079 266.65 170.838C272.603 170.268 273.305 166.135 273.82 163.12C274.369 159.94 274.785 157.43 279.609 156.585C283.227 155.949 285.881 154.415 287.492 152.013C289.795 148.549 289.005 144.635 288.961 144.47Z" fill="#ED6C30"/>
<path d="M273.323 248.612C273.816 248.372 274.148 247.901 274.23 247.382L274.935 242.955C275.035 242.329 274.772 241.706 274.281 241.335C273.765 240.958 273.094 240.904 272.532 241.185C272.511 241.19 270.038 242.359 267.487 241.465C265.656 240.815 264.161 239.23 263.035 236.746C260.032 230.138 255.341 230.519 251.929 230.809C248.692 231.076 247.205 231.062 246.099 227.996C244.871 224.588 242.903 222.354 240.245 221.352C236.003 219.738 231.693 222.036 231.513 222.128C231.054 222.37 230.741 222.825 230.659 223.344L229.954 227.771C229.913 228.008 229.928 228.242 229.982 228.454C230.045 228.7 230.163 228.929 230.327 229.123C230.492 229.317 230.698 229.471 230.93 229.574C231.163 229.676 231.416 229.725 231.67 229.715C231.924 229.706 232.172 229.639 232.396 229.52C232.428 229.511 235.57 227.865 238.359 228.936C240.045 229.589 241.35 231.143 242.226 233.578C244.262 239.201 248.44 238.85 251.489 238.598C254.704 238.336 257.24 238.114 259.26 242.575C260.777 245.92 262.925 248.107 265.652 249.069C269.581 250.435 273.175 248.695 273.323 248.612Z" fill="#D7598B"/>
<path d="M110.817 262.664C110.653 262.141 110.237 261.743 109.736 261.585L105.463 260.23C104.859 260.039 104.204 260.205 103.763 260.637C103.314 261.091 103.161 261.746 103.355 262.343C103.357 262.365 104.146 264.984 102.882 267.374C101.968 269.088 100.179 270.331 97.5551 271.076C90.574 273.064 90.254 277.759 90.0336 281.177C89.817 284.418 89.5828 285.886 86.3862 286.524C82.8331 287.233 80.3323 288.846 78.946 291.326C76.72 295.281 78.3525 299.885 78.4164 300.077C78.5881 300.566 78.9908 300.944 79.492 301.101L83.7651 302.457C83.9934 302.533 84.2269 302.553 84.445 302.53C84.6979 302.504 84.9416 302.422 85.1578 302.288C85.374 302.155 85.557 301.974 85.693 301.759C85.829 301.544 85.9145 301.301 85.9429 301.049C85.9714 300.796 85.9421 300.541 85.8573 300.301C85.8539 300.268 84.6923 296.916 86.1655 294.317C87.0616 292.748 88.7928 291.688 91.3309 291.183C97.1942 290.005 97.4678 285.821 97.6709 282.769C97.8897 279.55 98.0464 277.01 102.758 275.675C106.292 274.671 108.773 272.872 110.13 270.318C112.065 266.635 110.878 262.823 110.817 262.664Z" fill="#D7598B"/>
<path d="M48.3136 209.868C50.4186 210.493 52.732 210.021 54.552 209.506C55.9992 209.1 57.3587 208.771 58.5318 209.122C59.6939 209.451 60.1873 210.109 61.0206 211.315C61.8867 212.565 62.9611 214.122 65.2854 215.032C66.5572 215.525 67.8729 215.788 69.1776 215.788C69.5723 215.788 69.9341 215.766 70.2849 215.733C71.1072 215.646 71.754 214.955 71.7869 214.133L71.9404 210.054C71.9623 209.605 71.754 209.155 71.4361 208.826C71.1181 208.497 70.6357 208.311 70.1862 208.311C69.2433 208.311 68.3553 208.147 67.4782 207.796C66.1077 207.258 65.5047 206.392 64.7482 205.285C63.8711 204.024 62.7857 202.467 60.4504 201.777C58.5099 201.206 56.4268 201.645 54.6287 202.149C53.0719 202.588 51.6027 202.928 50.2542 202.522C49.41 202.27 48.6973 201.82 47.9189 201.042C47.5462 200.691 47.0199 200.505 46.5156 200.582C46.0003 200.647 45.5508 200.954 45.2876 201.404L43.4238 204.583C43.062 205.208 43.1278 205.987 43.6102 206.535C44.7066 207.785 46.077 209.188 48.3136 209.868ZM180.755 286.296C180.415 286.088 180.13 286.066 179.812 286.022C176.359 285.66 173.366 284.498 171.151 282.722C175.997 280.332 177.905 275.705 177.652 272.887C177.652 272.778 177.642 272.635 177.62 272.493C177.258 268.425 174.758 265.805 171.25 265.805C170.384 265.805 169.463 265.958 168.443 266.265C167.16 266.649 163.454 267.778 161.503 275.321C159.058 273.589 157.085 270.848 155.846 267.383C155.736 267.065 155.648 266.802 155.363 266.528C154.738 265.903 153.631 265.903 152.995 266.528L149.366 270.168C148.741 270.793 148.708 271.78 149.278 272.438C149.114 272.24 149.048 272.098 149.059 272.142C151.449 278.895 156.186 283.27 162.106 284.257C164.529 289.585 169.813 293.028 176.896 293.773C177.006 293.795 177.104 293.795 177.214 293.795C177.773 293.795 178.332 293.51 178.65 292.995L181.325 288.62C181.786 287.809 181.534 286.778 180.755 286.296ZM169.978 275.65C169.178 276.089 168.377 276.45 167.686 276.714C167.643 275.968 167.643 275.069 167.752 274.148C167.84 273.019 169.243 271.769 170.438 271.769C170.734 271.769 170.998 271.846 171.228 271.999C171.688 272.295 171.951 272.799 171.929 273.326C171.897 274.148 171.206 274.97 169.978 275.65Z" fill="#ED6C30"/>
</svg>
